<?xml version="1.0" encoding="UTF-8" standalone="no"?>
<!DOCTYPE svg PUBLIC "-//W3C//DTD SVG 1.1//EN" "http://www.w3.org/Graphics/SVG/1.1/DTD/svg11.dtd">
<svg width="100%" height="100%" viewBox="0 0 26 26" version="1.1" xmlns="http://www.w3.org/2000/svg" xmlns:xlink="http://www.w3.org/1999/xlink" xml:space="preserve" xmlns:serif="http://www.serif.com/" style="fill-rule:evenodd;clip-rule:evenodd;stroke-linejoin:round;stroke-miterlimit:2;">
    <g transform="matrix(1,0,0,1,-1834,-690)">
        <g transform="matrix(1.37057,0,0,1.37057,-684.448,-755.289)">
            <path d="M1847,1062.59L1839.22,1054.81C1838.83,1054.42 1838.2,1054.42 1837.81,1054.81C1837.42,1055.2 1837.42,1055.83 1837.81,1056.22L1845.59,1064L1837.81,1071.78C1837.42,1072.17 1837.42,1072.8 1837.81,1073.19C1838.2,1073.58 1838.83,1073.58 1839.22,1073.19L1847,1065.41L1854.78,1073.19C1855.17,1073.58 1855.8,1073.58 1856.19,1073.19C1856.58,1072.8 1856.58,1072.17 1856.19,1071.78L1848.41,1064L1856.19,1056.22C1856.58,1055.83 1856.58,1055.2 1856.19,1054.81C1855.8,1054.42 1855.17,1054.42 1854.78,1054.81L1847,1062.59Z" style="fill:white;"/>
        </g>
    </g>
</svg>
