<?xml version="1.0" encoding="UTF-8" standalone="no"?>
<!DOCTYPE svg PUBLIC "-//W3C//DTD SVG 1.1//EN" "http://www.w3.org/Graphics/SVG/1.1/DTD/svg11.dtd">
<svg width="100%" height="100%" viewBox="0 0 26 26" version="1.1" xmlns="http://www.w3.org/2000/svg" xmlns:xlink="http://www.w3.org/1999/xlink" xml:space="preserve" xmlns:serif="http://www.serif.com/" style="fill-rule:evenodd;clip-rule:evenodd;stroke-linejoin:round;stroke-miterlimit:2;">
    <g transform="matrix(1,0,0,1,-911.915,-2704.44)">
        <g transform="matrix(1,0,0,1,11.9155,-804)">
            <g id="line.svg" transform="matrix(0.0245361,0,0,0.0245361,912.562,3521)">
                <g transform="matrix(1,0,0,1,-512,-512)">
                    <path d="M826.24,420.821C841.131,420.821 853.12,432.981 853.12,447.744C853.12,462.464 841.131,474.624 826.24,474.624L751.36,474.624L751.36,522.624L826.24,522.624C841.131,522.624 853.12,534.699 853.12,549.504C853.12,564.181 841.131,576.341 826.24,576.341L724.437,576.341C709.717,576.341 697.685,564.181 697.685,549.504L697.685,345.941C697.685,331.221 709.717,319.061 724.565,319.061L826.368,319.061C841.131,319.061 853.12,331.221 853.12,345.941C853.12,360.832 841.131,372.821 826.24,372.821L751.36,372.821L751.36,420.821L826.24,420.821ZM661.76,549.504C661.76,561.024 654.336,571.264 643.328,574.933C640.597,575.829 637.653,576.256 634.837,576.256C625.834,576.256 618.154,572.416 613.077,565.589L508.842,424.064L508.842,549.504C508.842,564.181 496.938,576.341 481.919,576.341C467.156,576.341 455.21,564.181 455.21,549.504L455.21,345.941C455.21,334.421 462.591,324.181 473.557,320.554C476.117,319.573 479.36,319.146 481.834,319.146C490.154,319.146 497.834,323.583 502.954,329.983L607.999,472.063L607.999,345.94C607.999,331.22 620.031,319.06 634.879,319.06C649.599,319.06 661.759,331.22 661.759,345.94L661.76,549.504ZM416.811,549.504C416.811,564.181 404.779,576.341 389.888,576.341C375.168,576.341 363.136,564.181 363.136,549.504L363.136,345.941C363.136,331.221 375.168,319.061 390.016,319.061C404.779,319.061 416.811,331.221 416.811,345.941L416.811,549.504ZM311.595,576.341L209.792,576.341C195.072,576.341 182.912,564.181 182.912,549.504L182.912,345.941C182.912,331.221 195.072,319.061 209.792,319.061C224.64,319.061 236.672,331.221 236.672,345.941L236.672,522.624L311.595,522.624C326.443,522.624 338.432,534.699 338.432,549.504C338.432,564.181 326.4,576.341 311.595,576.341ZM1024,440.064C1024,210.901 794.24,24.405 512,24.405C229.76,24.405 0,210.901 0,440.064C0,645.333 182.187,817.323 428.16,850.005C444.843,853.504 467.541,861.013 473.301,875.178C478.421,888.021 476.672,907.861 474.922,921.258L467.925,964.778C466.005,977.621 457.685,1015.38 512.682,992.298C567.765,969.301 807.765,818.303 915.285,694.698C988.842,614.101 1024,531.541 1024,440.063L1024,440.064Z" style="fill:white;fill-rule:nonzero;"/>
                </g>
            </g>
        </g>
    </g>
</svg>
