<?xml version="1.0" encoding="UTF-8" standalone="no"?>
<!DOCTYPE svg PUBLIC "-//W3C//DTD SVG 1.1//EN" "http://www.w3.org/Graphics/SVG/1.1/DTD/svg11.dtd">
<svg width="100%" height="100%" viewBox="0 0 22 26" version="1.1" xmlns="http://www.w3.org/2000/svg" xmlns:xlink="http://www.w3.org/1999/xlink" xml:space="preserve" xmlns:serif="http://www.serif.com/" style="fill-rule:evenodd;clip-rule:evenodd;stroke-linejoin:round;stroke-miterlimit:2;">
    <g transform="matrix(1,0,0,1,-1624,-1141)">
        <g transform="matrix(1,0,0,1,1,405)">
            <g transform="matrix(0.0338552,0,0,0.0338552,1620.83,736)">
                <path d="M704,320C704,231.648 668.16,151.584 610.272,93.728C552.384,35.872 472.352,0 384,0C295.648,0 215.584,35.84 157.728,93.728C99.872,151.616 64,231.648 64,320C64,338.208 65.696,356.096 68.8,373.632C77.568,423.168 97.568,469.76 122.624,511.872C210.048,658.784 366.24,762.624 366.24,762.624C376.832,769.568 390.72,769.952 401.728,762.624C401.728,762.624 557.952,658.784 645.344,511.872C670.4,469.76 690.4,423.168 699.168,373.632C702.304,356.096 704,338.208 704,320ZM640,320C640,334.208 638.688,348.384 636.192,362.496C629.12,402.496 612.608,441.792 590.368,479.168C527.904,584.128 425.056,666.4 384,696.736C342.912,666.4 240.096,584.128 177.632,479.168C155.392,441.792 138.88,402.496 131.808,362.496C129.312,348.384 128,334.208 128,320C128,249.312 156.608,185.344 202.976,138.976C249.344,92.608 313.312,64 384,64C454.688,64 518.656,92.608 565.024,138.976C611.392,185.344 640,249.312 640,320ZM512,320C512,284.672 497.632,252.608 474.496,229.504C451.36,206.4 419.328,192 384,192C348.672,192 316.608,206.368 293.504,229.504C270.4,252.64 256,284.672 256,320C256,355.328 270.368,387.392 293.504,410.496C316.64,433.6 348.672,448 384,448C419.328,448 451.392,433.632 474.496,410.496C497.6,387.36 512,355.328 512,320ZM448,320C448,337.696 440.864,353.632 429.248,365.248C417.632,376.864 401.696,384 384,384C366.304,384 350.368,376.864 338.752,365.248C327.136,353.632 320,337.696 320,320C320,302.304 327.136,286.368 338.752,274.752C350.368,263.136 366.304,256 384,256C401.696,256 417.632,263.136 429.248,274.752C440.864,286.368 448,302.304 448,320Z" style="fill:rgb(11,189,110);fill-rule:nonzero;"/>
            </g>
        </g>
    </g>
</svg>
