<?xml version="1.0" encoding="UTF-8" standalone="no"?>
<!DOCTYPE svg PUBLIC "-//W3C//DTD SVG 1.1//EN" "http://www.w3.org/Graphics/SVG/1.1/DTD/svg11.dtd">
<svg width="100%" height="100%" viewBox="0 0 18 21" version="1.1" xmlns="http://www.w3.org/2000/svg" xmlns:xlink="http://www.w3.org/1999/xlink" xml:space="preserve" xmlns:serif="http://www.serif.com/" style="fill-rule:evenodd;clip-rule:evenodd;stroke-linejoin:round;stroke-miterlimit:2;">
    <g transform="matrix(1,0,0,1,-1050,-1284.71)">
        <g transform="matrix(1,0,0,1,17,80.5)">
            <g transform="matrix(0.0401786,0,0,0.0401786,1031.71,1204.21)">
                <path d="M458.903,114.538C447.798,99.392 432.316,81.688 415.314,64.686C398.312,47.684 380.608,32.204 365.462,21.097C339.675,2.187 327.166,0 320,0L72,0C49.944,0 32,17.944 32,40L32,472C32,494.056 49.943,512 72,512L440,512C462.056,512 480,494.056 480,472L480,160C480,152.834 477.814,140.325 458.903,114.538ZM448,472C448,476.336 444.336,480 440,480L72,480C67.664,480 64,476.336 64,472L64,40C64,35.664 67.664,32 72,32C72,32 319.978,31.999 320,32L320,144C320,152.836 327.162,160 336,160L448,160L448,472ZM421.006,294.74C414.182,288.017 399.049,284.457 376.02,284.154C360.431,283.982 341.669,285.355 321.935,288.118C313.098,283.019 303.989,277.471 296.841,270.789C277.61,252.831 261.557,227.903 251.553,200.492C252.205,197.932 252.76,195.682 253.277,193.386C253.277,193.386 264.11,131.856 261.243,111.053C260.847,108.2 260.605,107.372 259.839,105.155L258.898,102.738C255.951,95.942 250.174,88.741 241.116,89.134L235.658,88.962C225.557,88.962 217.326,94.128 215.165,101.849C208.596,126.066 215.374,162.295 227.655,209.218L224.511,216.861C215.717,238.299 204.696,259.891 194.972,278.94L193.708,281.417C183.478,301.437 174.195,318.431 165.78,332.828L157.092,337.422C156.46,337.756 141.57,345.631 138.078,347.744C108.45,365.434 88.816,385.515 85.559,401.452C84.523,406.537 85.294,413.045 90.566,416.058L98.969,420.287C102.615,422.113 106.458,423.038 110.396,423.038C131.499,423.038 155.997,396.752 189.745,337.855C228.71,325.17 273.071,314.626 311.951,308.81C341.58,325.494 378.022,337.082 401.022,337.082C405.106,337.082 408.628,336.692 411.488,335.935C415.899,334.767 419.617,332.251 421.884,328.838C426.347,322.122 427.251,312.872 426.04,303.4C425.68,300.589 423.435,297.113 421.006,294.74ZM105.823,407.024C109.672,396.503 124.903,375.702 147.426,357.246C148.842,356.098 152.33,352.83 155.523,349.795C131.971,387.357 116.199,402.328 105.823,407.024ZM414.451,316.826C412.375,318.125 406.425,318.876 402.597,318.876C390.243,318.876 374.961,313.229 353.534,304.043C361.768,303.434 369.315,303.124 376.085,303.124C388.476,303.124 392.145,303.07 404.26,306.16C416.374,309.25 416.529,315.527 414.451,316.826ZM199.426,318.747C204.151,310.289 209.067,301.369 214.091,291.908C226.337,268.75 234.07,250.63 239.83,235.735C251.285,256.577 265.552,274.295 282.322,288.491C284.415,290.262 286.632,292.042 288.96,293.816C254.855,300.564 225.378,308.771 199.426,318.747ZM239.217,99.843C246,99.843 249.859,116.94 250.179,132.97C250.499,149 246.75,160.25 242.1,168.574C238.249,156.25 236.387,136.824 236.387,124.122C236.387,124.122 236.104,99.843 239.217,99.843ZM392.687,87.313C408.037,102.663 420.087,116.512 428.977,128L352,128L352,51.027C363.491,59.917 377.339,71.966 392.687,87.313Z" style="fill-rule:nonzero;"/>
            </g>
        </g>
    </g>
</svg>
