<?xml version="1.0" encoding="UTF-8" standalone="no"?>
<!DOCTYPE svg PUBLIC "-//W3C//DTD SVG 1.1//EN" "http://www.w3.org/Graphics/SVG/1.1/DTD/svg11.dtd">
<svg width="100%" height="100%" viewBox="0 0 11 16" version="1.1" xmlns="http://www.w3.org/2000/svg" xmlns:xlink="http://www.w3.org/1999/xlink" xml:space="preserve" xmlns:serif="http://www.serif.com/" style="fill-rule:evenodd;clip-rule:evenodd;stroke-linejoin:round;stroke-miterlimit:2;">
    <g transform="matrix(1,0,0,1,-1287.94,-4407.1)">
        <g transform="matrix(0.4,0,0,0.4,553,4387)">
            <g transform="matrix(0.845061,0,0,0.845061,1053.67,-3028.33)">
                <path d="M957.155,3684.88C956.77,3685.83 955.599,3687.5 954.851,3688.2C953.774,3689.27 951.958,3689.51 950.506,3689.69C948.611,3689.9 946.828,3689.76 945.065,3689.04C942.618,3688.04 940.815,3686.14 938.91,3684.42C937.541,3683.18 936.277,3681.84 935.194,3680.36C931.845,3675.77 928.646,3668.18 927.704,3662.59C927.398,3660.78 927.32,3658.93 927.394,3657.09C927.489,3654.53 927.388,3651.91 928.384,3649.46C929.102,3647.7 930.244,3646.32 931.718,3645.11C932.858,3644.2 934.299,3643.07 935.814,3643.04C936.843,3643 938.856,3643.32 939.803,3643.71C939.987,3643.78 940.172,3643.86 940.324,3644.01C940.801,3644.42 940.855,3645.95 940.904,3646.58C941.136,3648.42 941.331,3650.28 941.599,3652.11C941.742,3652.96 942.189,3654.13 941.857,3654.94C941.203,3656.55 935.487,3656.95 934.909,3658.37C934.62,3659.08 934.903,3660.27 935.014,3661.05C935.723,3666.92 937.689,3671.59 941.397,3676.2C941.878,3676.82 942.532,3677.85 943.242,3678.14C944.663,3678.72 948.943,3674.91 950.548,3675.57C951.364,3675.9 951.885,3677.03 952.398,3677.73C953.518,3679.2 954.712,3680.63 955.869,3682.09C956.288,3682.56 957.342,3683.67 957.301,3684.29C957.305,3684.51 957.23,3684.69 957.155,3684.88Z" style="fill:white;fill-rule:nonzero;"/>
            </g>
        </g>
    </g>
</svg>
