<?xml version="1.0" encoding="UTF-8" standalone="no"?>
<!DOCTYPE svg PUBLIC "-//W3C//DTD SVG 1.1//EN" "http://www.w3.org/Graphics/SVG/1.1/DTD/svg11.dtd">
<svg width="100%" height="100%" viewBox="0 0 30 30" version="1.1" xmlns="http://www.w3.org/2000/svg" xmlns:xlink="http://www.w3.org/1999/xlink" xml:space="preserve" xmlns:serif="http://www.serif.com/" style="fill-rule:evenodd;clip-rule:evenodd;stroke-linejoin:round;stroke-miterlimit:2;">
    <g transform="matrix(1,0,0,1,-964.478,-2702)">
        <g transform="matrix(1,0,0,1,19.478,-803)">
            <g transform="matrix(0.75,0,0,0.75,1.6875,2787.81)">
                <g transform="matrix(1.05263,0,0,1.05263,-75.9342,13.0921)">
                    <rect x="1267" y="896" width="38" height="38" style="fill:none;"/>
                </g>
                <g id="twitter--2-.svg" serif:id="twitter (2).svg" transform="matrix(0.0351562,0,0,0.0351562,1277.75,976.25)">
                    <g transform="matrix(1,0,0,1,-512,-512)">
                        <clipPath id="_clip1">
                            <rect x="0" y="0" width="1024" height="1024"/>
                        </clipPath>
                        <g clip-path="url(#_clip1)">
                            <path d="M1022.04,194.944C984.277,211.541 943.957,222.848 901.504,228.011C944.768,201.942 978.048,160.854 993.792,111.83C953.216,135.51 908.245,152.747 860.373,162.347C822.144,121.43 767.658,95.83 707.157,95.83C591.232,95.83 497.237,189.825 497.237,305.622C497.237,322.262 499.157,338.262 502.656,353.579C328.149,345.344 173.483,261.547 69.973,134.87C51.754,165.675 41.557,201.473 41.557,240.47C41.557,313.43 78.677,377.558 134.912,415.233C100.48,414.124 68.096,404.652 39.851,388.95L39.851,391.553C39.851,493.313 112.086,578.177 208.214,597.505C190.593,602.241 171.99,604.801 152.918,604.801C139.521,604.801 126.678,603.521 113.835,601.132C140.758,684.46 218.155,745.217 310.272,746.924C238.592,803.201 147.755,836.737 49.92,836.737C33.28,836.737 16.683,835.756 0,833.878C93.397,893.355 203.435,928.129 322.432,928.129C708.736,928.129 919.723,608.3 919.723,331.393C919.723,322.476 919.723,313.473 919.083,304.513C960.086,275.116 995.883,237.953 1024.04,195.798L1022.04,194.944Z" style="fill:white;fill-rule:nonzero;"/>
                        </g>
                    </g>
                </g>
            </g>
        </g>
    </g>
</svg>
