<?xml version="1.0" encoding="UTF-8" standalone="no"?>
<!DOCTYPE svg PUBLIC "-//W3C//DTD SVG 1.1//EN" "http://www.w3.org/Graphics/SVG/1.1/DTD/svg11.dtd">
<svg width="100%" height="100%" viewBox="0 0 70 60" version="1.1" xmlns="http://www.w3.org/2000/svg" xmlns:xlink="http://www.w3.org/1999/xlink" xml:space="preserve" xmlns:serif="http://www.serif.com/" style="fill-rule:evenodd;clip-rule:evenodd;stroke-linejoin:round;stroke-miterlimit:2;">
    <g transform="matrix(1,0,0,1,-765,-2413.18)">
        <g transform="matrix(0.875,0,0,0.875,190.125,769.421)">
            <g transform="matrix(1.41111,0,0,1.41111,662.053,1903.21)">
                <path d="M0,13.328C0.077,13.328 0.154,13.322 0.232,13.309C0.665,13.235 10.907,11.423 18.634,4.449C20.719,2.567 22.659,0.639 24.412,-1.297L28.487,1.613C28.899,1.906 29.441,1.951 29.897,1.723C30.351,1.496 30.643,1.037 30.655,0.529L31.061,-16.049C31.072,-16.494 30.866,-16.918 30.508,-17.184C30.149,-17.449 29.685,-17.524 29.262,-17.385L13.085,-12.064C12.593,-11.902 12.235,-11.478 12.157,-10.968C12.08,-10.456 12.296,-9.945 12.717,-9.645L17.172,-6.464C15.523,-4.037 13.853,-1.934 12.194,-0.201C9.647,2.458 6.964,4.442 4.217,5.697C3.528,6.012 3.226,6.825 3.54,7.515C3.855,8.203 4.667,8.507 5.358,8.191C8.421,6.793 11.387,4.607 14.175,1.695C16.196,-0.415 18.223,-3.026 20.197,-6.063C20.598,-6.678 20.442,-7.5 19.845,-7.926L16.514,-10.304L28.271,-14.172L27.976,-2.122L25.003,-4.245C24.43,-4.653 23.639,-4.562 23.174,-4.03C21.281,-1.866 19.136,0.302 16.796,2.413C9.676,8.84 -0.131,10.588 -0.23,10.605C-0.976,10.733 -1.478,11.441 -1.35,12.187C-1.235,12.856 -0.656,13.328 0,13.328M43.232,28.109L36.057,28.109L36.057,-6.261L43.232,-6.261L43.232,28.109ZM33.313,28.109L26.137,28.109L26.137,7.413L33.313,7.413L33.313,28.109ZM23.394,28.109L16.217,28.109L16.217,18.519L23.394,18.519L23.394,28.109ZM13.475,28.109L6.299,28.109L6.299,23.472L13.475,23.472L13.475,28.109ZM51.74,28.109L45.976,28.109L45.976,-7.633C45.976,-8.391 45.362,-9.005 44.604,-9.005L34.685,-9.005C33.927,-9.005 33.313,-8.391 33.313,-7.633L33.313,4.67L24.765,4.67C24.007,4.67 23.394,5.283 23.394,6.041L23.394,15.776L14.846,15.776C14.088,15.776 13.475,16.391 13.475,17.148L13.475,20.73L4.927,20.73C4.169,20.73 3.555,21.344 3.555,22.101L3.555,28.109L-2.209,28.109C-2.967,28.109 -3.581,28.723 -3.581,29.48C-3.581,30.238 -2.967,30.852 -2.209,30.852L51.74,30.852C52.498,30.852 53.112,30.238 53.112,29.48C53.112,28.723 52.498,28.109 51.74,28.109" style="fill:white;fill-rule:nonzero;"/>
            </g>
        </g>
    </g>
</svg>
