<?xml version="1.0" encoding="UTF-8" standalone="no"?>
<!DOCTYPE svg PUBLIC "-//W3C//DTD SVG 1.1//EN" "http://www.w3.org/Graphics/SVG/1.1/DTD/svg11.dtd">
<svg width="100%" height="100%" viewBox="0 0 54 48" version="1.1" xmlns="http://www.w3.org/2000/svg" xmlns:xlink="http://www.w3.org/1999/xlink" xml:space="preserve" xmlns:serif="http://www.serif.com/" style="fill-rule:evenodd;clip-rule:evenodd;stroke-linejoin:round;stroke-miterlimit:2;">
    <g transform="matrix(1,0,0,1,-639.125,-3145.25)">
        <g transform="matrix(1.25,0,0,1.25,-46.5,224.25)">
            <g transform="matrix(0.767857,0,0,0.767857,576.911,2352.12)">
                <path d="M0,10.058L8,10.058C8.552,10.058 9,9.591 9,9.038C9,8.486 8.552,8.038 8,8.038L0,8.038C-0.552,8.038 -1,8.506 -1,9.058C-1,9.61 -0.552,10.058 0,10.058M0,4.058L8,4.058C8.552,4.058 9,3.591 9,3.038C9,2.486 8.552,2.038 8,2.038L0,2.038C-0.552,2.038 -1,2.506 -1,3.058C-1,3.61 -0.552,4.058 0,4.058M13,28.038L-5,28.038L-5,-17.334L13,-8.334L13,28.038ZM-7,22.048L-11,22.048L-11,-9.952L-7,-9.952L-7,22.048ZM-7,28.038L-11,28.038L-11,24.048L-7,24.048L-7,28.038ZM-13,28.038L-31,28.038L-31,-8.334L-13,-17.334L-13,28.038ZM18,28.038L15,28.038L15,-8.952C15,-9.331 14.786,-9.677 14.447,-9.846L-5.553,-19.846C-5.863,-20 -6.231,-19.984 -6.526,-19.802C-6.82,-19.62 -7,-19.298 -7,-18.952L-7,-11.952L-11,-11.952L-11,-18.952C-11,-19.298 -11.18,-19.62 -11.474,-19.802C-11.769,-19.984 -12.138,-20 -12.447,-19.846L-32.447,-9.846C-32.786,-9.677 -33,-9.331 -33,-8.952L-33,28.038L-36,28.038C-36.552,28.038 -37,28.506 -37,29.058C-37,29.61 -36.552,30.058 -36,30.058L18,30.058C18.552,30.058 19,29.591 19,29.038C19,28.486 18.552,28.038 18,28.038M0,16.058L8,16.058C8.552,16.058 9,15.591 9,15.038C9,14.486 8.552,14.038 8,14.038L0,14.038C-0.552,14.038 -1,14.506 -1,15.058C-1,15.61 -0.552,16.058 0,16.058M0,-1.942L8,-1.942C8.552,-1.942 9,-2.409 9,-2.962C9,-3.514 8.552,-3.962 8,-3.962L0,-3.962C-0.552,-3.962 -1,-3.494 -1,-2.942C-1,-2.39 -0.552,-1.942 0,-1.942M0,22.058L8,22.058C8.552,22.058 9,21.591 9,21.038C9,20.486 8.552,20.038 8,20.038L0,20.038C-0.552,20.038 -1,20.506 -1,21.058C-1,21.61 -0.552,22.058 0,22.058M-26,4.058L-18,4.058C-17.448,4.058 -17,3.591 -17,3.038C-17,2.486 -17.448,2.038 -18,2.038L-26,2.038C-26.552,2.038 -27,2.506 -27,3.058C-27,3.61 -26.552,4.058 -26,4.058M-26,22.058L-18,22.058C-17.448,22.058 -17,21.591 -17,21.038C-17,20.486 -17.448,20.038 -18,20.038L-26,20.038C-26.552,20.038 -27,20.506 -27,21.058C-27,21.61 -26.552,22.058 -26,22.058M-26,10.058L-18,10.058C-17.448,10.058 -17,9.591 -17,9.038C-17,8.486 -17.448,8.038 -18,8.038L-26,8.038C-26.552,8.038 -27,8.506 -27,9.058C-27,9.61 -26.552,10.058 -26,10.058M-26,16.058L-18,16.058C-17.448,16.058 -17,15.591 -17,15.038C-17,14.486 -17.448,14.038 -18,14.038L-26,14.038C-26.552,14.038 -27,14.506 -27,15.058C-27,15.61 -26.552,16.058 -26,16.058M-26,-1.942L-18,-1.942C-17.448,-1.942 -17,-2.409 -17,-2.962C-17,-3.514 -17.448,-3.962 -18,-3.962L-26,-3.962C-26.552,-3.962 -27,-3.494 -27,-2.942C-27,-2.39 -26.552,-1.942 -26,-1.942" style="fill:white;fill-rule:nonzero;"/>
            </g>
        </g>
    </g>
</svg>
