<?xml version="1.0" encoding="UTF-8" standalone="no"?>
<!DOCTYPE svg PUBLIC "-//W3C//DTD SVG 1.1//EN" "http://www.w3.org/Graphics/SVG/1.1/DTD/svg11.dtd">
<svg width="100%" height="100%" viewBox="0 0 50 49" version="1.1" xmlns="http://www.w3.org/2000/svg" xmlns:xlink="http://www.w3.org/1999/xlink" xml:space="preserve" xmlns:serif="http://www.serif.com/" style="fill-rule:evenodd;clip-rule:evenodd;stroke-linejoin:round;stroke-miterlimit:2;">
    <g transform="matrix(1,0,0,1,-351,-3146.46)">
        <g transform="matrix(1.25,0,0,1.25,-62.75,248)">
            <g transform="matrix(0.769231,0,0,0.769231,331,2318.77)">
                <path d="M29.5,19L31.5,19L31.5,22L29.5,22L29.5,19ZM28.5,24L32.5,24C33.053,24 33.5,23.552 33.5,23L33.5,18C33.5,17.448 33.053,17 32.5,17L28.5,17C27.947,17 27.5,17.448 27.5,18L27.5,23C27.5,23.552 27.947,24 28.5,24M29.5,9L31.5,9L31.5,12L29.5,12L29.5,9ZM28.5,14L32.5,14C33.053,14 33.5,13.552 33.5,13L33.5,8C33.5,7.448 33.053,7 32.5,7L28.5,7C27.947,7 27.5,7.448 27.5,8L27.5,13C27.5,13.552 27.947,14 28.5,14M43.5,16L45.5,16L45.5,19L43.5,19L43.5,16ZM42.5,21L46.5,21C47.053,21 47.5,20.552 47.5,20L47.5,15C47.5,14.448 47.053,14 46.5,14L42.5,14C41.947,14 41.5,14.448 41.5,15L41.5,20C41.5,20.552 41.947,21 42.5,21M20.5,9L22.5,9L22.5,12L20.5,12L20.5,9ZM19.5,14L23.5,14C24.053,14 24.5,13.552 24.5,13L24.5,8C24.5,7.448 24.053,7 23.5,7L19.5,7C18.947,7 18.5,7.448 18.5,8L18.5,13C18.5,13.552 18.947,14 19.5,14M20.5,19L22.5,19L22.5,22L20.5,22L20.5,19ZM19.5,24L23.5,24C24.053,24 24.5,23.552 24.5,23L24.5,18C24.5,17.448 24.053,17 23.5,17L19.5,17C18.947,17 18.5,17.448 18.5,18L18.5,23C18.5,23.552 18.947,24 19.5,24M20.5,29L22.5,29L22.5,32L20.5,32L20.5,29ZM19.5,34L23.5,34C24.053,34 24.5,33.552 24.5,33L24.5,28C24.5,27.448 24.053,27 23.5,27L19.5,27C18.947,27 18.5,27.448 18.5,28L18.5,33C18.5,33.552 18.947,34 19.5,34M43.5,26L45.5,26L45.5,29L43.5,29L43.5,26ZM42.5,31L46.5,31C47.053,31 47.5,30.552 47.5,30L47.5,25C47.5,24.448 47.053,24 46.5,24L42.5,24C41.947,24 41.5,24.448 41.5,25L41.5,30C41.5,30.552 41.947,31 42.5,31M29.5,29L31.5,29L31.5,32L29.5,32L29.5,29ZM28.5,34L32.5,34C33.053,34 33.5,33.552 33.5,33L33.5,28C33.5,27.448 33.053,27 32.5,27L28.5,27C27.947,27 27.5,27.448 27.5,28L27.5,33C27.5,33.552 27.947,34 28.5,34M6.5,26L8.5,26L8.5,29L6.5,29L6.5,26ZM5.5,31L9.5,31C10.053,31 10.5,30.552 10.5,30L10.5,25C10.5,24.448 10.053,24 9.5,24L5.5,24C4.947,24 4.5,24.448 4.5,25L4.5,30C4.5,30.552 4.947,31 5.5,31M6.5,16L8.5,16L8.5,19L6.5,19L6.5,16ZM5.5,21L9.5,21C10.053,21 10.5,20.552 10.5,20L10.5,15C10.5,14.448 10.053,14 9.5,14L5.5,14C4.947,14 4.5,14.448 4.5,15L4.5,20C4.5,20.552 4.947,21 5.5,21M50,48L39,48L39,10L50,10L50,48ZM37,2L37,48L31,48L31,42.01L32,42.01C32.553,42.01 33,41.542 33,40.99C33,40.438 32.553,39.99 32,39.99L20,39.99C19.447,39.99 19,40.458 19,41.01C19,41.562 19.447,42.01 20,42.01L21,42.01L21,48L15,48L15,2L37,2ZM29,48L23,48L23,42.01L29,42.01L29,48ZM13,48L2,48L2,10L13,10L13,48ZM51,8L39,8L39,1C39,0.448 38.553,0 38,0L14,0C13.447,0 13,0.448 13,1L13,8L1,8C0.447,8 0,8.448 0,9L0,49C0,49.552 0.447,50 1,50L51,50C51.553,50 52,49.552 52,49L52,9C52,8.448 51.553,8 51,8M6.5,36L8.5,36L8.5,39L6.5,39L6.5,36ZM5.5,41L9.5,41C10.053,41 10.5,40.552 10.5,40L10.5,35C10.5,34.448 10.053,34 9.5,34L5.5,34C4.947,34 4.5,34.448 4.5,35L4.5,40C4.5,40.552 4.947,41 5.5,41M43.5,36L45.5,36L45.5,39L43.5,39L43.5,36ZM42.5,41L46.5,41C47.053,41 47.5,40.552 47.5,40L47.5,35C47.5,34.448 47.053,34 46.5,34L42.5,34C41.947,34 41.5,34.448 41.5,35L41.5,40C41.5,40.552 41.947,41 42.5,41" style="fill:white;fill-rule:nonzero;"/>
            </g>
        </g>
    </g>
</svg>
