<?xml version="1.0" encoding="UTF-8" standalone="no"?>
<!DOCTYPE svg PUBLIC "-//W3C//DTD SVG 1.1//EN" "http://www.w3.org/Graphics/SVG/1.1/DTD/svg11.dtd">
<svg width="100%" height="100%" viewBox="0 0 70 67" version="1.1" xmlns="http://www.w3.org/2000/svg" xmlns:xlink="http://www.w3.org/1999/xlink" xml:space="preserve" xmlns:serif="http://www.serif.com/" style="fill-rule:evenodd;clip-rule:evenodd;stroke-linejoin:round;stroke-miterlimit:2;">
    <g transform="matrix(1,0,0,1,-488,-1655)">
        <g transform="matrix(1,0,0,1,-105,-263)">
            <g transform="matrix(1.2347,0,0,1.2347,628.315,1966.93)">
                <path d="M0,-25.022C1.608,-25.022 2.917,-23.713 2.917,-22.105C2.917,-20.497 1.608,-19.188 0,-19.188C-1.608,-19.188 -2.918,-20.497 -2.918,-22.105C-2.918,-23.713 -1.608,-25.022 0,-25.022M0,-16.775C2.938,-16.775 5.33,-19.167 5.33,-22.105C5.33,-25.044 2.938,-27.435 0,-27.435C-2.939,-27.435 -5.331,-25.044 -5.331,-22.105C-5.331,-19.167 -2.939,-16.775 0,-16.775M-8.4,-10.996C-8.4,-12.159 -7.455,-13.104 -6.293,-13.104C-6.263,-13.104 -6.232,-13.106 -6.202,-13.108L-2.989,-13.108L-1.045,-9.739C-0.83,-9.366 -0.432,-9.135 0,-9.135C0.431,-9.135 0.829,-9.366 1.045,-9.739L2.989,-13.108L6.2,-13.108C6.23,-13.106 6.261,-13.104 6.291,-13.104C7.453,-13.104 8.399,-12.159 8.399,-10.996L8.399,-7.371L-8.4,-7.371L-8.4,-10.996ZM-10.813,-10.996L-10.813,-6.165C-10.813,-5.498 -10.273,-4.958 -9.607,-4.958L9.605,-4.958C10.271,-4.958 10.813,-5.498 10.813,-6.165L10.813,-10.996C10.813,-13.454 8.842,-15.459 6.397,-15.516C6.362,-15.519 6.327,-15.521 6.291,-15.521L2.293,-15.521C1.862,-15.521 1.463,-15.291 1.248,-14.918L0,-12.754L-1.248,-14.918C-1.464,-15.291 -1.862,-15.521 -2.293,-15.521L-6.293,-15.521C-6.329,-15.521 -6.363,-15.519 -6.398,-15.516C-8.843,-15.459 -10.813,-13.454 -10.813,-10.996M21.321,1.15C18.919,1.15 16.965,-0.805 16.965,-3.208C16.965,-5.61 18.919,-7.565 21.321,-7.565C23.724,-7.565 25.679,-5.61 25.679,-3.208C25.679,-0.805 23.724,1.15 21.321,1.15M-0.001,10.016C-1.844,10.016 -3.629,9.774 -5.338,9.339C-5.427,6.605 -7.674,4.406 -10.43,4.406C-11.54,4.406 -12.565,4.766 -13.403,5.371C-18.3,1.52 -21.499,-4.387 -21.701,-11.038C-21.36,-11.043 -21.027,-11.078 -20.7,-11.133C-20.206,-9.493 -19.504,-7.811 -18.443,-6.203C-13.338,1.54 -5.248,4.813 2.604,4.813C6.51,4.813 10.357,4.003 13.748,2.531C14.715,2.111 15.551,1.71 16.303,1.32C16.489,1.527 16.687,1.723 16.898,1.906C12.914,6.845 6.824,10.016 -0.001,10.016M-10.43,12.194C-11.912,12.194 -13.117,10.988 -13.117,9.506C-13.117,8.024 -11.912,6.819 -10.43,6.819C-8.948,6.819 -7.742,8.024 -7.742,9.506C-7.742,10.988 -8.948,12.194 -10.43,12.194M-26.188,-17.801C-26.188,-20.203 -24.234,-22.157 -21.831,-22.157C-19.43,-22.157 -17.475,-20.203 -17.475,-17.801C-17.475,-15.398 -19.43,-13.444 -21.831,-13.444C-24.234,-13.444 -26.188,-15.398 -26.188,-17.801M-10.422,-30.742C-9.565,-30.052 -8.479,-29.637 -7.296,-29.637C-5.014,-29.637 -3.088,-31.177 -2.493,-33.27C-1.675,-33.368 -0.846,-33.427 -0.001,-33.427C11.977,-33.427 21.721,-23.683 21.721,-11.706C21.721,-11.466 21.71,-11.23 21.702,-10.993C21.359,-11.804 20.932,-12.638 20.362,-13.532C17.934,-17.343 14.409,-20.544 10.17,-22.79C9.583,-23.1 8.852,-22.877 8.54,-22.288C8.228,-21.699 8.452,-20.969 9.041,-20.657C12.912,-18.607 16.123,-15.695 18.328,-12.235C18.889,-11.356 19.291,-10.544 19.602,-9.748C16.7,-8.984 14.552,-6.345 14.552,-3.208C14.552,-2.335 14.724,-1.501 15.026,-0.734C14.364,-0.397 13.631,-0.05 12.787,0.317C3.501,4.35 -9.517,2.95 -16.429,-7.531C-17.364,-8.949 -17.984,-10.464 -18.423,-11.961C-16.416,-13.137 -15.062,-15.311 -15.062,-17.801C-15.062,-18.775 -15.272,-19.7 -15.645,-20.538C-14.807,-21.062 -13.92,-21.534 -12.98,-21.941C-11.814,-22.446 -10.585,-22.856 -9.325,-23.16C-8.678,-23.316 -8.279,-23.967 -8.436,-24.615C-8.592,-25.263 -9.241,-25.66 -9.892,-25.505C-11.285,-25.169 -12.647,-24.715 -13.94,-24.155C-15.02,-23.687 -16.034,-23.138 -16.994,-22.527C-17.355,-22.897 -17.76,-23.223 -18.196,-23.502C-16.242,-26.51 -13.574,-29.007 -10.422,-30.742M-7.296,-37.217C-5.871,-37.217 -4.712,-36.057 -4.712,-34.633C-4.712,-33.209 -5.871,-32.05 -7.296,-32.05C-8.72,-32.05 -9.879,-33.209 -9.879,-34.633C-9.879,-36.057 -8.72,-37.217 -7.296,-37.217M24.011,-9.418C24.083,-10.171 24.134,-10.932 24.134,-11.706C24.134,-25.013 13.307,-35.84 -0.001,-35.84C-0.818,-35.84 -1.621,-35.784 -2.418,-35.704C-2.909,-37.946 -4.908,-39.629 -7.296,-39.629C-10.051,-39.629 -12.292,-37.388 -12.292,-34.633C-12.292,-33.939 -12.149,-33.278 -11.893,-32.677C-15.395,-30.684 -18.35,-27.846 -20.479,-24.434C-20.916,-24.523 -21.368,-24.57 -21.831,-24.57C-25.564,-24.57 -28.602,-21.534 -28.602,-17.801C-28.602,-14.875 -26.731,-12.383 -24.127,-11.44C-24.045,-3.894 -20.482,2.825 -14.973,7.198C-15.326,7.892 -15.53,8.674 -15.53,9.506C-15.53,12.319 -13.242,14.607 -10.43,14.607C-8.403,14.607 -6.655,13.416 -5.832,11.701C-3.963,12.167 -2.014,12.429 -0.001,12.429C7.709,12.429 14.58,8.791 18.999,3.144C19.725,3.41 20.505,3.562 21.321,3.562C25.055,3.562 28.092,0.526 28.092,-3.208C28.092,-5.985 26.409,-8.375 24.011,-9.418" style="fill:rgb(4,82,155);fill-rule:nonzero;"/>
            </g>
        </g>
    </g>
</svg>
