<?xml version="1.0" encoding="UTF-8" standalone="no"?>
<!DOCTYPE svg PUBLIC "-//W3C//DTD SVG 1.1//EN" "http://www.w3.org/Graphics/SVG/1.1/DTD/svg11.dtd">
<svg width="100%" height="100%" viewBox="0 0 70 64" version="1.1" xmlns="http://www.w3.org/2000/svg" xmlns:xlink="http://www.w3.org/1999/xlink" xml:space="preserve" xmlns:serif="http://www.serif.com/" style="fill-rule:evenodd;clip-rule:evenodd;stroke-linejoin:round;stroke-miterlimit:2;">
    <g transform="matrix(1,0,0,1,-488,-1281)">
        <g transform="matrix(1,0,0,1,-105,-309)">
            <g transform="matrix(1.23471,0,0,1.23471,636.042,1638.71)">
                <path d="M0,-28.85C-0.25,-29.1 -0.589,-29.241 -0.942,-29.241C-1.296,-29.241 -1.636,-29.1 -1.886,-28.85L-7.477,-23.258C-8.5,-22.237 -10.163,-22.235 -11.184,-23.258C-12.206,-24.28 -12.206,-25.942 -11.185,-26.965L-5.607,-32.541C-5.601,-32.548 -5.594,-32.554 -5.588,-32.561L-5.587,-32.561C0.06,-38.204 9.246,-38.201 14.891,-32.557C20.264,-27.183 20.583,-18.755 15.755,-13.016C15.632,-13.18 15.497,-13.341 15.35,-13.499L0,-28.85ZM13.423,-7.959C12.401,-6.938 10.738,-6.938 9.716,-7.959L-0.923,-18.598C-1.442,-19.12 -2.288,-19.12 -2.808,-18.598C-3.068,-18.338 -3.198,-17.996 -3.198,-17.655C-3.198,-17.314 -3.068,-16.972 -2.808,-16.712L7.831,-6.073C8.323,-5.581 8.593,-4.923 8.593,-4.22C8.593,-3.517 8.323,-2.86 7.83,-2.368C6.847,-1.382 5.109,-1.382 4.124,-2.368L-6.515,-13.005C-7.035,-13.527 -7.88,-13.527 -8.4,-13.005C-8.66,-12.746 -8.791,-12.404 -8.791,-12.063C-8.791,-11.721 -8.66,-11.38 -8.4,-11.12L2.238,-0.482C2.73,0.01 3.001,0.669 3.001,1.372C3.001,2.075 2.73,2.733 2.239,3.225C1.921,3.542 1.528,3.764 1.104,3.879C1.115,3.789 1.116,3.697 1.122,3.605C1.131,3.481 1.158,3.361 1.158,3.236C1.158,3.131 1.134,3.032 1.128,2.927C1.12,2.777 1.105,2.627 1.084,2.477C1.06,2.309 1.032,2.144 0.992,1.98C0.945,1.783 0.886,1.588 0.816,1.397C0.776,1.289 0.735,1.181 0.688,1.076C0.583,0.836 0.459,0.603 0.317,0.379C0.277,0.318 0.234,0.26 0.192,0.201C0.02,-0.046 -0.168,-0.286 -0.386,-0.503C-1.381,-1.498 -2.709,-2.047 -4.125,-2.047C-4.231,-2.047 -4.338,-2.044 -4.443,-2.038C-4.437,-2.144 -4.434,-2.249 -4.434,-2.357C-4.434,-3.772 -4.982,-5.1 -5.978,-6.095C-6.207,-6.325 -6.458,-6.526 -6.722,-6.706C-6.753,-6.728 -6.783,-6.752 -6.815,-6.774C-7.065,-6.938 -7.331,-7.076 -7.604,-7.195C-7.652,-7.216 -7.699,-7.239 -7.748,-7.258C-8.026,-7.37 -8.313,-7.454 -8.606,-7.517C-8.649,-7.526 -8.692,-7.536 -8.735,-7.543C-9.039,-7.601 -9.347,-7.631 -9.659,-7.633C-9.678,-7.634 -9.697,-7.639 -9.717,-7.639C-9.741,-7.639 -9.764,-7.632 -9.788,-7.632C-9.87,-7.631 -9.952,-7.635 -10.034,-7.63C-10.031,-7.68 -10.042,-7.73 -10.041,-7.78C-10.034,-7.985 -10.05,-8.189 -10.067,-8.394C-10.079,-8.54 -10.084,-8.686 -10.109,-8.831C-10.145,-9.043 -10.207,-9.249 -10.268,-9.456C-10.308,-9.59 -10.336,-9.726 -10.386,-9.857C-10.473,-10.079 -10.589,-10.29 -10.707,-10.502C-10.765,-10.608 -10.808,-10.718 -10.874,-10.821C-11.072,-11.127 -11.302,-11.419 -11.57,-11.688C-11.81,-11.927 -12.07,-12.133 -12.34,-12.316C-12.371,-12.337 -12.399,-12.361 -12.431,-12.381C-12.682,-12.543 -12.946,-12.678 -13.216,-12.793C-13.275,-12.819 -13.333,-12.846 -13.393,-12.87C-13.65,-12.969 -13.915,-13.044 -14.183,-13.103C-14.257,-13.119 -14.329,-13.134 -14.403,-13.147C-14.676,-13.195 -14.951,-13.22 -15.227,-13.226C-15.284,-13.227 -15.34,-13.226 -15.397,-13.225C-15.474,-13.224 -15.551,-13.228 -15.627,-13.224C-15.621,-13.329 -15.619,-13.434 -15.619,-13.54C-15.619,-14.956 -16.167,-16.285 -17.162,-17.28C-18.158,-18.275 -19.486,-18.824 -20.901,-18.824C-22.317,-18.824 -23.645,-18.275 -24.64,-17.28L-28.368,-13.551C-28.37,-13.55 -28.372,-13.547 -28.373,-13.545C-28.536,-13.383 -28.687,-13.21 -28.825,-13.028C-31.005,-15.628 -32.193,-18.88 -32.193,-22.315C-32.193,-26.184 -30.687,-29.821 -27.951,-32.557C-22.624,-37.883 -14.144,-38.185 -8.459,-33.46L-13.07,-28.85C-15.131,-26.789 -15.131,-23.434 -13.07,-21.371C-11.008,-19.311 -7.653,-19.311 -5.592,-21.371L-0.942,-26.021L13.43,-11.649C13.771,-11.281 13.982,-10.877 14.075,-10.415C14.089,-10.345 14.12,-10.282 14.145,-10.215C14.27,-9.415 14.032,-8.569 13.423,-7.959M-6,8.817C-7.021,9.838 -8.685,9.838 -9.706,8.817C-10.728,7.796 -10.728,6.132 -9.706,5.111L-5.978,1.383C-4.994,0.397 -3.257,0.397 -2.271,1.383C-2.16,1.495 -2.064,1.617 -1.976,1.743C-1.935,1.803 -1.9,1.868 -1.865,1.931C-1.828,1.996 -1.791,2.061 -1.76,2.129C-1.72,2.215 -1.686,2.305 -1.656,2.396C-1.641,2.439 -1.629,2.482 -1.616,2.526C-1.587,2.635 -1.561,2.747 -1.545,2.859C-1.543,2.869 -1.543,2.879 -1.542,2.889C-1.474,3.434 -1.573,4.003 -1.854,4.508C-1.864,4.526 -1.868,4.546 -1.877,4.564C-1.988,4.752 -2.114,4.931 -2.271,5.088L-6,8.817ZM-15.298,3.225L-15.299,3.225C-15.791,2.733 -16.061,2.075 -16.061,1.372C-16.061,0.669 -15.79,0.01 -15.299,-0.482L-11.57,-4.209C-10.586,-5.195 -8.848,-5.195 -7.863,-4.209C-7.371,-3.717 -7.101,-3.06 -7.101,-2.357C-7.101,-2.181 -7.118,-2.008 -7.15,-1.839C-7.25,-1.334 -7.495,-0.871 -7.864,-0.503L-7.865,-0.501L-11.592,3.225C-12.576,4.211 -14.314,4.211 -15.298,3.225M-20.89,-2.368L-20.891,-2.368C-21.383,-2.86 -21.653,-3.517 -21.653,-4.22C-21.653,-4.923 -21.383,-5.581 -20.89,-6.073L-17.163,-9.801C-17.032,-9.932 -16.891,-10.044 -16.742,-10.142C-15.727,-10.805 -14.348,-10.693 -13.456,-9.801C-13.201,-9.546 -13.009,-9.25 -12.881,-8.935C-12.817,-8.778 -12.77,-8.615 -12.738,-8.45C-12.578,-7.622 -12.817,-6.734 -13.456,-6.095C-13.457,-6.095 -13.457,-6.094 -13.457,-6.094L-17.184,-2.368C-18.168,-1.382 -19.906,-1.382 -20.89,-2.368M-26.483,-7.959C-26.975,-8.452 -27.246,-9.11 -27.246,-9.813C-27.246,-9.99 -27.229,-10.163 -27.195,-10.332C-27.187,-10.358 -27.173,-10.38 -27.167,-10.407C-27.115,-10.635 -27.029,-10.851 -26.924,-11.052C-26.912,-11.076 -26.9,-11.1 -26.887,-11.122C-26.775,-11.322 -26.642,-11.506 -26.483,-11.665L-22.754,-15.393C-21.771,-16.379 -20.033,-16.379 -19.048,-15.393C-18.556,-14.901 -18.285,-14.244 -18.285,-13.54C-18.285,-13.365 -18.302,-13.192 -18.335,-13.024C-18.434,-12.519 -18.679,-12.057 -19.048,-11.688L-22.776,-7.959C-23.798,-6.938 -25.461,-6.938 -26.483,-7.959M16.776,-34.442C10.396,-40.823 0.202,-41.099 -6.529,-35.297C-13.261,-41.1 -23.456,-40.825 -29.836,-34.442C-33.076,-31.204 -34.86,-26.896 -34.86,-22.315C-34.86,-17.752 -33.087,-13.462 -29.872,-10.227C-29.883,-10.088 -29.912,-9.954 -29.912,-9.813C-29.912,-8.397 -29.364,-7.069 -28.369,-6.073L-28.368,-6.073C-27.337,-5.042 -25.983,-4.528 -24.629,-4.528C-24.515,-4.528 -24.401,-4.553 -24.287,-4.56C-24.294,-4.446 -24.32,-4.335 -24.32,-4.22C-24.32,-2.805 -23.771,-1.478 -22.776,-0.482C-21.78,0.513 -20.453,1.062 -19.038,1.062C-18.921,1.062 -18.81,1.037 -18.694,1.029C-18.702,1.144 -18.728,1.255 -18.728,1.372C-18.728,2.788 -18.18,4.115 -17.184,5.111C-16.188,6.106 -14.86,6.655 -13.445,6.655C-13.33,6.655 -13.219,6.629 -13.105,6.622C-13.2,8.088 -12.709,9.586 -11.592,10.704L-11.591,10.704C-10.561,11.734 -9.207,12.25 -7.853,12.25C-6.499,12.25 -5.145,11.734 -4.114,10.704L-0.386,6.975C-0.272,6.861 -0.185,6.728 -0.083,6.606C0.079,6.621 0.241,6.639 0.403,6.639C1.787,6.639 3.132,6.102 4.124,5.111C5.12,4.116 5.668,2.788 5.668,1.372C5.668,1.265 5.665,1.159 5.659,1.053C7.169,1.142 8.646,0.588 9.716,-0.482C10.711,-1.477 11.26,-2.805 11.26,-4.22C11.26,-4.327 11.257,-4.432 11.251,-4.537C12.704,-4.459 14.197,-4.961 15.309,-6.074C16.434,-7.2 16.918,-8.726 16.802,-10.217C16.954,-10.371 17.097,-10.516 17.146,-10.569C23.536,-17.359 23.374,-27.845 16.776,-34.442" style="fill:rgb(4,82,155);fill-rule:nonzero;"/>
            </g>
        </g>
    </g>
</svg>
