<?xml version="1.0" encoding="UTF-8" standalone="no"?>
<!DOCTYPE svg PUBLIC "-//W3C//DTD SVG 1.1//EN" "http://www.w3.org/Graphics/SVG/1.1/DTD/svg11.dtd">
<svg width="100%" height="100%" viewBox="0 0 58 70" version="1.1" xmlns="http://www.w3.org/2000/svg" xmlns:xlink="http://www.w3.org/1999/xlink" xml:space="preserve" xmlns:serif="http://www.serif.com/" style="fill-rule:evenodd;clip-rule:evenodd;stroke-linejoin:round;stroke-miterlimit:2;">
    <g transform="matrix(1,0,0,1,-492,-1525)">
        <g transform="matrix(1,0,0,1,-108,-283)">
            <g transform="matrix(1.23472,0,0,1.23472,643.339,1851.82)">
                <path d="M0,-14.285L-1.843,-13.869C-2.286,-13.769 -2.638,-13.431 -2.753,-12.992C-2.917,-12.374 -3.16,-11.787 -3.475,-11.247C-3.705,-10.854 -3.696,-10.367 -3.454,-9.982L-2.445,-8.384C-2.669,-8.136 -2.906,-7.899 -3.155,-7.675L-4.752,-8.681C-5.137,-8.926 -5.625,-8.932 -6.017,-8.704C-6.562,-8.386 -7.148,-8.143 -7.76,-7.984C-8.2,-7.868 -8.54,-7.517 -8.641,-7.072L-9.056,-5.229C-9.396,-5.211 -9.722,-5.211 -10.061,-5.229L-10.476,-7.072C-10.576,-7.517 -10.916,-7.868 -11.355,-7.984C-11.967,-8.143 -12.554,-8.386 -13.1,-8.704C-13.492,-8.932 -13.979,-8.926 -14.364,-8.681L-15.961,-7.675C-16.21,-7.898 -16.447,-8.135 -16.671,-8.384L-15.662,-9.981C-15.42,-10.366 -15.411,-10.853 -15.641,-11.247C-15.957,-11.789 -16.2,-12.376 -16.362,-12.991C-16.479,-13.431 -16.829,-13.769 -17.272,-13.869L-19.115,-14.285C-19.124,-14.454 -19.129,-14.622 -19.129,-14.787C-19.129,-14.952 -19.124,-15.12 -19.115,-15.289L-17.272,-15.705C-16.829,-15.806 -16.479,-16.144 -16.362,-16.583C-16.199,-17.199 -15.956,-17.786 -15.641,-18.328C-15.411,-18.721 -15.42,-19.209 -15.662,-19.594L-16.671,-21.19C-16.446,-21.439 -16.21,-21.677 -15.961,-21.9L-14.364,-20.891C-13.979,-20.648 -13.492,-20.639 -13.099,-20.869C-12.558,-21.186 -11.971,-21.428 -11.354,-21.591C-10.914,-21.707 -10.576,-22.058 -10.476,-22.502L-10.061,-24.344C-9.722,-24.362 -9.395,-24.362 -9.056,-24.344L-8.641,-22.502C-8.54,-22.058 -8.202,-21.707 -7.763,-21.591C-7.146,-21.428 -6.559,-21.186 -6.018,-20.869C-5.623,-20.639 -5.136,-20.648 -4.752,-20.891L-3.155,-21.9C-2.907,-21.676 -2.67,-21.439 -2.446,-21.19L-3.454,-19.593C-3.696,-19.208 -3.705,-18.721 -3.476,-18.328C-3.16,-17.788 -2.917,-17.201 -2.753,-16.582C-2.637,-16.143 -2.286,-15.806 -1.844,-15.705L-0.001,-15.289C0.009,-15.119 0.014,-14.952 0.014,-14.787C0.014,-14.62 0.009,-14.453 0,-14.285M1.396,-17.473L-0.618,-17.928C-0.733,-18.256 -0.866,-18.577 -1.015,-18.889L0.086,-20.634C0.356,-21.063 0.333,-21.615 0.027,-22.019C-0.645,-22.909 -1.437,-23.702 -2.325,-24.373C-2.731,-24.681 -3.283,-24.703 -3.712,-24.432L-5.457,-23.329C-5.769,-23.479 -6.09,-23.612 -6.418,-23.726L-6.872,-25.74C-6.983,-26.235 -7.391,-26.609 -7.894,-26.679C-9.015,-26.833 -10.106,-26.833 -11.224,-26.679C-11.726,-26.609 -12.133,-26.235 -12.244,-25.74L-12.699,-23.726C-13.026,-23.612 -13.348,-23.479 -13.659,-23.329L-15.404,-24.432C-15.832,-24.702 -16.384,-24.681 -16.79,-24.374C-17.677,-23.704 -18.469,-22.912 -19.145,-22.021C-19.451,-21.616 -19.475,-21.063 -19.203,-20.634L-18.101,-18.888C-18.25,-18.577 -18.383,-18.256 -18.498,-17.928L-20.512,-17.473C-21.007,-17.362 -21.38,-16.955 -21.45,-16.452C-21.527,-15.893 -21.567,-15.332 -21.567,-14.787C-21.567,-14.242 -21.527,-13.682 -21.45,-13.122C-21.38,-12.62 -21.006,-12.213 -20.511,-12.1L-18.498,-11.646C-18.383,-11.318 -18.25,-10.998 -18.101,-10.685L-19.203,-8.94C-19.475,-8.512 -19.451,-7.959 -19.146,-7.554C-18.473,-6.665 -17.68,-5.873 -16.79,-5.2C-16.384,-4.893 -15.833,-4.872 -15.404,-5.142L-13.659,-6.244C-13.347,-6.094 -13.026,-5.961 -12.698,-5.847L-12.244,-3.835C-12.133,-3.34 -11.726,-2.965 -11.224,-2.895C-10.661,-2.817 -10.101,-2.777 -9.558,-2.777C-9.016,-2.777 -8.456,-2.817 -7.894,-2.895C-7.391,-2.965 -6.983,-3.34 -6.872,-3.835L-6.418,-5.847C-6.09,-5.961 -5.77,-6.094 -5.456,-6.244L-3.711,-5.142C-3.281,-4.871 -2.729,-4.894 -2.325,-5.201C-1.433,-5.876 -0.641,-6.669 0.028,-7.556C0.333,-7.96 0.356,-8.512 0.086,-8.939L-1.015,-10.685C-0.865,-10.998 -0.733,-11.318 -0.618,-11.646L1.395,-12.1C1.89,-12.213 2.264,-12.62 2.334,-13.122C2.412,-13.685 2.451,-14.245 2.451,-14.787C2.451,-15.329 2.412,-15.889 2.334,-16.452C2.264,-16.954 1.891,-17.362 1.396,-17.473M3.451,8.415C3.818,11.619 4.562,14.176 5.053,15.611C3.398,16.106 0.223,17.012 -3.491,17.848C-7.043,18.648 -10.953,18.767 -12.966,18.767C-13.354,18.767 -13.696,18.762 -13.984,18.756C-14.198,17.634 -14.689,15.797 -15.798,13.921C-16.627,12.519 -17.821,12.356 -18.648,12.356C-19.145,12.356 -19.693,12.418 -20.328,12.49C-20.978,12.565 -21.713,12.649 -22.601,12.693C-22.942,12.709 -23.262,12.719 -23.561,12.719C-26.033,12.719 -26.254,12.112 -26.455,10.949C-26.92,8.263 -26.933,5.883 -26.943,3.971C-26.946,3.29 -26.949,2.686 -26.974,2.173C-27.057,0.321 -28.253,0.121 -28.791,0.121C-30.048,0.121 -31.758,0.046 -32.586,-0.041C-32.293,-1.293 -31.628,-3.231 -30.711,-5.503C-30.222,-6.716 -29.675,-7.887 -29.234,-8.829C-28.532,-10.334 -28.348,-10.746 -28.34,-11.179C-28.338,-11.293 -28.34,-11.472 -28.343,-11.703C-28.359,-12.852 -28.396,-15.545 -27.888,-18.095C-26.535,-24.874 -22.467,-32.971 -10.762,-33.05L-10.557,-33.051C-4.354,-33.051 0.799,-31.134 4.344,-27.507C7.361,-24.42 9.037,-20.22 8.941,-15.983C8.779,-8.862 6.82,-3.515 5.247,0.78C4.109,3.885 3.212,6.336 3.451,8.415M5.872,8.138C5.7,6.633 6.511,4.42 7.536,1.619C9.085,-2.61 11.207,-8.403 11.379,-15.928C11.49,-20.816 9.561,-25.658 6.087,-29.211C3.287,-32.075 -1.873,-35.489 -10.557,-35.489L-10.777,-35.488C-21.19,-35.418 -28.116,-29.41 -30.278,-18.573C-30.838,-15.769 -30.798,-12.896 -30.781,-11.669C-30.779,-11.54 -30.777,-11.431 -30.776,-11.344C-30.873,-11.083 -31.175,-10.437 -31.443,-9.86C-31.896,-8.892 -32.458,-7.688 -32.972,-6.416C-33.658,-4.715 -34.563,-2.317 -34.969,-0.559C-35.111,0.061 -35.491,1.707 -33.648,2.251C-32.952,2.457 -30.613,2.531 -29.398,2.552C-29.386,2.976 -29.384,3.455 -29.381,3.985C-29.371,5.881 -29.357,8.479 -28.857,11.364C-28.28,14.697 -25.971,15.157 -23.561,15.157C-23.225,15.157 -22.864,15.147 -22.479,15.128C-21.515,15.079 -20.704,14.986 -20.053,14.913C-19.491,14.849 -19.007,14.794 -18.648,14.794C-18.137,14.794 -18.065,14.876 -17.897,15.16C-16.456,17.601 -16.261,20.004 -16.26,20.026C-16.217,20.639 -15.725,21.124 -15.111,21.158C-15.077,21.16 -14.264,21.204 -12.966,21.204C-10.383,21.204 -6.549,21.035 -2.956,20.226C2.596,18.977 6.979,17.569 7.023,17.555C7.351,17.449 7.618,17.211 7.76,16.898C7.901,16.584 7.904,16.226 7.768,15.91C7.754,15.879 6.397,12.711 5.872,8.138M-9.559,-12.794C-10.657,-12.794 -11.551,-13.688 -11.551,-14.787C-11.551,-15.886 -10.657,-16.781 -9.559,-16.781C-8.459,-16.781 -7.565,-15.886 -7.565,-14.787C-7.565,-13.688 -8.459,-12.794 -9.559,-12.794M-9.559,-19.219C-12.002,-19.219 -13.989,-17.23 -13.989,-14.787C-13.989,-12.344 -12.002,-10.356 -9.559,-10.356C-7.114,-10.356 -5.127,-12.344 -5.127,-14.787C-5.127,-17.23 -7.114,-19.219 -9.559,-19.219" style="fill:rgb(4,82,155);fill-rule:nonzero;"/>
            </g>
        </g>
    </g>
</svg>
