<?xml version="1.0" encoding="UTF-8" standalone="no"?>
<!DOCTYPE svg PUBLIC "-//W3C//DTD SVG 1.1//EN" "http://www.w3.org/Graphics/SVG/1.1/DTD/svg11.dtd">
<svg width="100%" height="100%" viewBox="0 0 223 43" version="1.1" xmlns="http://www.w3.org/2000/svg" xmlns:xlink="http://www.w3.org/1999/xlink" xml:space="preserve" xmlns:serif="http://www.serif.com/" style="fill-rule:evenodd;clip-rule:evenodd;stroke-linejoin:round;stroke-miterlimit:2;">
    <g transform="matrix(1,0,0,1,-1273,-4171)">
        <g transform="matrix(1,0,0,1,0,817)">
            <g id="logo" transform="matrix(0.151176,0,0,0.151176,1193.07,3107.71)">
                <g transform="matrix(6.61479,0,0,6.61479,-257.793,-22023.6)">
                    <path d="M190.276,3612.87C190.276,3616.51 188.513,3618.59 186.118,3618.59C183.673,3618.59 182.128,3616.25 182.128,3613.07C182.128,3609.73 183.802,3607.38 186.248,3607.38C188.783,3607.38 190.276,3609.78 190.276,3612.87ZM324.49,3612.87C324.49,3616.51 322.726,3618.59 320.331,3618.59C317.886,3618.59 316.341,3616.25 316.341,3613.07C316.341,3609.73 318.015,3607.38 320.461,3607.38C322.996,3607.38 324.49,3609.78 324.49,3612.87ZM339.066,3617.31C339.066,3616.57 339.478,3616.04 340.045,3616.04C340.623,3616.04 341.022,3616.56 341.022,3617.31C341.022,3618.04 340.635,3618.59 340.045,3618.59C339.464,3618.59 339.066,3618.04 339.066,3617.31ZM315.516,3618.09C315.142,3618.33 314.318,3618.57 313.276,3618.57C310.521,3618.57 308.848,3616.41 308.848,3613.11C308.848,3609.54 310.83,3607.38 313.482,3607.38C314.523,3607.38 315.271,3607.66 315.593,3607.87L315.245,3609.44C314.833,3609.22 314.267,3609.03 313.545,3609.03C311.782,3609.03 310.507,3610.41 310.507,3613.02C310.507,3615.4 311.628,3616.93 313.533,3616.93C314.177,3616.93 314.846,3616.77 315.258,3616.53L315.516,3618.09ZM203.745,3616.25C204.26,3616.62 205.033,3616.94 205.843,3616.94C206.859,3616.94 207.427,3616.35 207.427,3615.46C207.427,3614.64 206.989,3614.16 205.882,3613.66C204.452,3613.02 203.54,3612.07 203.54,3610.51C203.54,3608.74 204.724,3607.38 206.603,3607.38C207.542,3607.38 208.238,3607.64 208.689,3607.93L208.302,3609.53C207.993,3609.32 207.388,3609.01 206.577,3609.01C205.573,3609.01 205.135,3609.69 205.135,3610.31C205.135,3611.15 205.637,3611.54 206.797,3612.1C208.302,3612.81 209.036,3613.76 209.036,3615.32C209.036,3617.06 207.981,3618.57 205.741,3618.57C204.827,3618.57 203.874,3618.25 203.397,3617.89L203.745,3616.25ZM249.066,3617.91C248.512,3618.17 247.43,3618.52 246.272,3618.52C244.804,3618.52 243.697,3618.05 242.873,3617.07C242.101,3616.16 241.651,3614.72 241.663,3613.08C241.663,3609.65 243.62,3607.45 246.492,3607.45C247.56,3607.45 248.396,3607.72 248.795,3607.96L248.448,3609.56C247.971,3609.3 247.392,3609.09 246.478,3609.09C244.624,3609.09 243.324,3610.46 243.324,3612.99C243.324,3615.45 244.535,3616.91 246.335,3616.91C246.902,3616.91 247.327,3616.82 247.533,3616.69L247.533,3613.98L246.002,3613.98L246.002,3612.42L249.066,3612.42L249.066,3617.91ZM304.494,3617.91C303.941,3618.17 302.858,3618.52 301.701,3618.52C300.233,3618.52 299.126,3618.05 298.302,3617.07C297.53,3616.16 297.08,3614.72 297.092,3613.08C297.092,3609.65 299.049,3607.45 301.919,3607.45C302.988,3607.45 303.825,3607.72 304.224,3607.96L303.876,3609.56C303.401,3609.3 302.821,3609.09 301.906,3609.09C300.052,3609.09 298.753,3610.46 298.753,3612.99C298.753,3615.45 299.963,3616.91 301.765,3616.91C302.331,3616.91 302.756,3616.82 302.962,3616.69L302.962,3613.98L301.43,3613.98L301.43,3612.42L304.494,3612.42L304.494,3617.91ZM231.117,3613.6L227.848,3613.6L227.848,3616.78L231.503,3616.78L231.503,3618.41L226.264,3618.41L226.264,3607.56L231.311,3607.56L231.311,3609.19L227.848,3609.19L227.848,3611.99L231.117,3611.99L231.117,3613.6ZM275.307,3613.6L272.037,3613.6L272.037,3616.78L275.691,3616.78L275.691,3618.41L270.453,3618.41L270.453,3607.56L275.499,3607.56L275.499,3609.19L272.037,3609.19L272.037,3611.99L275.307,3611.99L275.307,3613.6ZM268.417,3613.6L265.149,3613.6L265.149,3616.78L268.804,3616.78L268.804,3618.41L263.566,3618.41L263.566,3607.56L268.611,3607.56L268.611,3609.19L265.149,3609.19L265.149,3611.99L268.417,3611.99L268.417,3613.6ZM210.724,3607.56L212.308,3607.56L212.308,3618.41L210.724,3618.41L210.724,3607.56ZM250.947,3607.56L252.53,3607.56L252.53,3618.41L250.947,3618.41L250.947,3607.56ZM284.926,3607.56L286.509,3607.56L286.509,3618.41L284.926,3618.41L284.926,3607.56ZM333.697,3607.71C334.263,3607.58 335.048,3607.48 336.117,3607.48C337.275,3607.48 338.125,3607.79 338.679,3608.37C339.193,3608.9 339.528,3609.75 339.528,3610.76C339.528,3611.79 339.271,3612.65 338.781,3613.23C338.15,3614.01 337.159,3614.39 336.039,3614.39C335.743,3614.39 335.473,3614.37 335.267,3614.32L335.267,3618.41L333.697,3618.41L333.697,3607.71ZM233.153,3618.41L233.153,3607.56L234.955,3607.56L237.195,3612.21C237.775,3613.42 238.277,3614.68 238.676,3615.85L238.701,3615.85C238.599,3614.4 238.559,3613 238.559,3611.34L238.559,3607.56L240.026,3607.56L240.026,3618.41L238.392,3618.41L236.127,3613.65C235.573,3612.45 234.994,3611.12 234.568,3609.89L234.531,3609.91C234.594,3611.31 234.607,3612.74 234.607,3614.53L234.607,3618.41L233.153,3618.41ZM214.381,3618.41L214.381,3607.56L216.183,3607.56L218.423,3612.21C219.002,3613.42 219.504,3614.68 219.904,3615.85L219.929,3615.85C219.826,3614.4 219.787,3613 219.787,3611.34L219.787,3607.56L221.255,3607.56L221.255,3618.41L219.62,3618.41L217.355,3613.65C216.801,3612.45 216.222,3611.12 215.796,3609.89L215.758,3609.91C215.823,3611.31 215.835,3612.74 215.835,3614.53L215.835,3618.41L214.381,3618.41ZM191.901,3618.41L191.901,3607.56L193.702,3607.56L195.942,3612.21C196.522,3613.42 197.024,3614.68 197.422,3615.85L197.449,3615.85C197.346,3614.4 197.306,3613 197.306,3611.34L197.306,3607.56L198.773,3607.56L198.773,3618.41L197.139,3618.41L194.875,3613.65C194.32,3612.45 193.741,3611.12 193.315,3609.89L193.277,3609.91C193.342,3611.31 193.354,3612.74 193.354,3614.53L193.354,3618.41L191.901,3618.41ZM288.581,3618.41L288.581,3607.56L290.383,3607.56L292.623,3612.21C293.204,3613.42 293.706,3614.68 294.106,3615.85L294.129,3615.85C294.027,3614.4 293.988,3613 293.988,3611.34L293.988,3607.56L295.455,3607.56L295.455,3618.41L293.821,3618.41L291.556,3613.65C291.002,3612.45 290.422,3611.12 289.997,3609.89L289.959,3609.91C290.024,3611.31 290.036,3612.74 290.036,3614.53L290.036,3618.41L288.581,3618.41ZM254.603,3618.41L254.603,3607.56L256.406,3607.56L258.645,3612.21C259.224,3613.42 259.727,3614.68 260.126,3615.85L260.152,3615.85C260.048,3614.4 260.009,3613 260.009,3611.34L260.009,3607.56L261.477,3607.56L261.477,3618.41L259.843,3618.41L257.577,3613.65C257.024,3612.45 256.444,3611.12 256.019,3609.89L255.98,3609.91C256.045,3611.31 256.058,3612.74 256.058,3614.53L256.058,3618.41L254.603,3618.41ZM177.583,3609.22L175.111,3609.22L175.111,3607.56L181.664,3607.56L181.664,3609.22L179.167,3609.22L179.167,3618.41L177.583,3618.41L177.583,3609.22ZM277.342,3607.71C277.933,3607.58 278.821,3607.48 279.736,3607.48C280.984,3607.48 281.834,3607.74 282.413,3608.35C282.889,3608.85 283.159,3609.61 283.159,3610.52C283.159,3611.92 282.401,3612.87 281.589,3613.24L281.589,3613.29C282.206,3613.58 282.581,3614.34 282.8,3615.38C283.069,3616.74 283.302,3617.99 283.481,3618.41L281.846,3618.41C281.718,3618.09 281.512,3617.2 281.267,3615.85C281.023,3614.43 280.611,3613.98 279.711,3613.95L278.911,3613.95L278.911,3618.41L277.342,3618.41L277.342,3607.71ZM326.113,3607.71C326.705,3607.58 327.594,3607.48 328.508,3607.48C329.756,3607.48 330.605,3607.74 331.186,3608.35C331.66,3608.85 331.932,3609.61 331.932,3610.52C331.932,3611.92 331.172,3612.87 330.361,3613.24L330.361,3613.29C330.979,3613.58 331.353,3614.34 331.571,3615.38C331.842,3616.74 332.074,3617.99 332.253,3618.41L330.618,3618.41C330.49,3618.09 330.285,3617.2 330.038,3615.85C329.795,3614.43 329.383,3613.98 328.482,3613.95L327.684,3613.95L327.684,3618.41L326.113,3618.41L326.113,3607.71ZM183.802,3613.03C183.802,3615.24 184.689,3616.99 186.209,3616.99C187.74,3616.99 188.603,3615.22 188.603,3612.95C188.603,3610.91 187.792,3608.98 186.209,3608.98C184.638,3608.98 183.802,3610.8 183.802,3613.03ZM318.015,3613.03C318.015,3615.24 318.903,3616.99 320.422,3616.99C321.954,3616.99 322.817,3615.22 322.817,3612.95C322.817,3610.91 322.005,3608.98 320.422,3608.98C318.851,3608.98 318.015,3610.8 318.015,3613.03ZM335.267,3612.76C335.461,3612.82 335.718,3612.84 336.039,3612.84C337.224,3612.84 337.944,3612.12 337.944,3610.85C337.944,3609.64 337.275,3608.99 336.181,3608.99C335.743,3608.99 335.435,3609.04 335.267,3609.09L335.267,3612.76ZM327.684,3612.5L328.624,3612.5C329.692,3612.5 330.361,3611.79 330.361,3610.72C330.361,3609.53 329.692,3608.98 328.663,3608.98C328.16,3608.98 327.837,3609.03 327.684,3609.08L327.684,3612.5ZM278.911,3612.5L279.851,3612.5C280.919,3612.5 281.589,3611.79 281.589,3610.72C281.589,3609.53 280.919,3608.98 279.89,3608.98C279.388,3608.98 279.066,3609.03 278.911,3609.08L278.911,3612.5ZM244.498,3593.7L243.884,3595.14L253.792,3595.14L253.792,3602.16L251.461,3602.16L251.461,3601.04L235.279,3601.04L235.279,3602.16L232.978,3602.16L232.978,3595.14L241.297,3595.14L241.988,3593.7L235.204,3593.7L235.204,3588.27L251.385,3588.27L251.385,3593.7L244.498,3593.7ZM321.312,3579.87C320.509,3580.09 319.331,3580.28 317.779,3580.42L317.293,3578.11C320.706,3577.82 323.532,3577.2 325.766,3576.28L326.663,3578.39C326.168,3578.63 325.613,3578.86 324.998,3579.06C324.367,3579.23 323.856,3579.38 323.463,3579.51L323.463,3583.57L326.689,3583.57L326.689,3585.85L323.463,3585.85L323.463,3586.41C324.572,3587.67 325.682,3589.07 326.791,3590.61L325.639,3593C324.803,3591.65 324.076,3590.49 323.463,3589.52L323.463,3602.16L321.312,3602.16L321.312,3590.33C320.443,3592.41 319.484,3594.31 318.445,3596.03L316.933,3593.36C318.522,3591.08 319.956,3588.58 321.236,3585.85L317.139,3585.85L317.139,3583.57L321.312,3583.57L321.312,3579.87ZM194.773,3579.56L177.617,3579.56L177.617,3602.16L175.008,3602.16L175.008,3577L197.382,3577L197.382,3598.68C197.382,3600 197.214,3600.87 196.871,3601.29C196.513,3601.74 195.709,3601.96 194.465,3601.96L190.88,3601.96L190.292,3599.18L193.926,3599.32C194.507,3599.32 194.797,3599.02 194.797,3598.43L194.773,3579.56ZM212.339,3598.04C210.169,3599.89 207.601,3601.26 204.632,3602.13L202.968,3599.79C206.005,3598.92 208.506,3597.77 210.47,3596.34L212.339,3598.04ZM225.216,3602.1C222.211,3600.49 219.507,3599.17 217.1,3598.15L218.686,3596.34C221.111,3597.12 223.782,3598.28 226.701,3599.82L225.216,3602.1ZM260.451,3590C261.903,3588.29 263.079,3586.49 263.983,3584.6L260.017,3584.6L260.017,3582.23L266.672,3582.23L266.672,3584.21C265.836,3586.1 264.778,3587.9 263.498,3589.61L266.8,3589.61L266.8,3591.19C266.629,3592.58 266.305,3593.89 265.828,3595.12C265.828,3595.32 266.229,3595.8 267.032,3596.56C267.816,3597.33 268.925,3597.88 270.359,3598.23C271.793,3598.57 273.865,3598.73 276.579,3598.73C279.311,3598.73 281.76,3598.67 283.927,3598.54L283.518,3601.29L279.038,3601.29C273.712,3601.29 270.205,3601 268.515,3600.4C266.826,3599.79 265.58,3598.81 264.778,3597.45C263.806,3599.24 262.669,3600.72 261.372,3601.91L259.785,3599.9C262.328,3597.75 263.838,3595.09 264.317,3591.92L260.4,3591.92L260.451,3590ZM332.374,3590C331.211,3590.13 329.548,3590.21 327.38,3590.25L326.868,3587.88C331.714,3587.88 335.82,3587.44 339.181,3586.55L340.283,3588.66C338.866,3589.09 336.988,3589.46 334.651,3589.77L334.651,3592.89L340.258,3592.89L340.258,3595.09L334.651,3595.09L334.651,3598.85L341.102,3598.85L341.102,3601.1L325.588,3601.1L325.588,3598.85L332.374,3598.85L332.374,3595.09L327.097,3595.09L327.097,3592.89L332.374,3592.89L332.374,3590ZM301.852,3597.9L312.296,3597.9L312.296,3600.63L288.692,3600.63L288.692,3597.9L299.163,3597.9L299.163,3581.06L289.743,3581.06L289.743,3578.34L311.324,3578.34L311.324,3581.04L301.852,3581.04L301.852,3597.9ZM251.461,3597.12L235.28,3597.12L235.28,3599.1L251.461,3599.1L251.461,3597.12ZM180.281,3587.38L192.032,3587.38L192.032,3596.79L180.281,3596.79L180.281,3587.38ZM276.837,3588.91L282.162,3588.91L282.162,3596.54L269.054,3596.54L269.054,3588.91L274.404,3588.91L274.404,3586.57L267.44,3586.57L267.44,3584.26L274.404,3584.26L274.404,3581.32L271.05,3581.32C270.367,3582.43 269.745,3583.32 269.181,3583.99L267.185,3582.43C268.737,3580.63 269.906,3578.54 270.692,3576.17L272.893,3576.83C272.535,3577.93 272.253,3578.67 272.049,3579.06L274.404,3579.06L274.404,3575.94L276.837,3575.94L276.837,3579.06L282.468,3579.06L282.468,3581.32L276.837,3581.32L276.837,3584.26L283.595,3584.26L283.595,3586.57L276.837,3586.57L276.837,3588.91ZM209.471,3593.67L209.471,3577.11L219.84,3577.11L219.84,3593.67L223.167,3593.67L223.193,3590.53L220.786,3590.53L220.786,3588.1L223.271,3588.1L223.322,3585.18L220.737,3585.18L220.737,3582.76L223.372,3582.76L223.399,3580.03L220.633,3580.03L220.633,3577.5L225.676,3577.5L225.369,3593.67L226.778,3593.67L226.778,3596.09L202.738,3596.09L202.738,3593.67L204.197,3593.67L203.917,3578.14C205.537,3577.94 207.004,3577.52 208.319,3576.89L209.291,3579.2C208.763,3579.42 208.207,3579.61 207.628,3579.76C207.031,3579.9 206.587,3580.02 206.297,3580.12L206.321,3582.76L208.523,3582.76L208.523,3585.18L206.374,3585.18L206.424,3588.13L208.678,3588.13L208.678,3590.55L206.475,3590.55L206.5,3593.67L209.471,3593.67ZM189.6,3589.86L182.713,3589.86L182.713,3594.28L189.6,3594.28L189.6,3589.86ZM279.754,3591.16L271.46,3591.16L271.46,3594.25L279.754,3594.25L279.754,3591.16ZM217.714,3579.45L211.595,3579.45L211.595,3593.67L217.714,3593.67L217.714,3579.45ZM216.843,3592.25L212.492,3592.25L212.492,3584.18L216.843,3584.18L216.843,3592.25ZM249.107,3590.16L237.484,3590.16L237.484,3591.81L249.107,3591.81L249.107,3590.16ZM215.308,3586.24L214.029,3586.24L214.029,3590.19L215.308,3590.19L215.308,3586.24ZM231.954,3584.71L254.687,3584.71L254.687,3589.66L252.306,3589.66L252.306,3586.91L234.307,3586.91L234.307,3589.66L231.954,3589.66L231.954,3584.71ZM327.509,3577.03L339.873,3577.03L339.873,3585.38L327.509,3585.38L327.509,3577.03ZM240.913,3584.71C238.727,3583.09 237.483,3582.29 237.175,3582.29C236.169,3583.4 234.785,3584.2 233.028,3584.68L231.567,3582.87C233.054,3582.61 234.248,3582.06 235.153,3581.2C236.041,3580.35 236.493,3578.61 236.51,3575.97L238.763,3576.08C238.763,3577.75 238.558,3579.24 238.147,3580.53C238.147,3580.57 238.823,3580.92 240.171,3581.59C240.768,3581.89 241.528,3582.38 242.449,3583.07L240.913,3584.71ZM253.253,3584.68C250.761,3583.11 249.3,3582.32 248.874,3582.32C247.885,3583.52 246.452,3584.32 244.573,3584.71L243.14,3582.85C244.643,3582.6 245.836,3582.08 246.725,3581.26C247.612,3580.44 248.09,3578.69 248.158,3576L250.309,3576.11C250.309,3577.8 250.113,3579.3 249.72,3580.62C251.222,3581.23 252.818,3582.03 254.507,3583.01L253.253,3584.68ZM193.235,3584.6L179.18,3584.6L179.18,3582.23L193.235,3582.23L193.235,3584.6ZM337.441,3579.26L329.94,3579.26L329.94,3583.15L337.441,3583.15L337.441,3579.26ZM217.151,3582.79L212.184,3582.79L212.184,3580.76L217.151,3580.76L217.151,3582.79ZM264.189,3581.59C262.858,3580.02 261.62,3578.75 260.477,3577.81L261.935,3576.22C263.47,3577.39 264.735,3578.55 265.725,3579.7L264.189,3581.59ZM251.588,3580.28C252.134,3579.15 252.5,3578.03 252.69,3576.92L254.559,3577.34C254.404,3578.62 254.072,3579.8 253.56,3580.9L251.588,3580.28ZM239.89,3580.23C240.452,3579.1 240.819,3577.97 240.99,3576.86L242.885,3577.31C242.713,3578.61 242.381,3579.78 241.886,3580.84L239.89,3580.23ZM243.705,3580.28C244.233,3579.04 244.55,3577.85 244.65,3576.72L246.494,3577.03C246.324,3578.64 246.05,3579.87 245.675,3580.7L243.705,3580.28ZM232.031,3580.23C232.542,3579.08 232.857,3577.89 232.978,3576.67L234.795,3576.97C234.623,3578.59 234.351,3579.81 233.976,3580.65L232.031,3580.23Z" style="fill:white;fill-rule:nonzero;"/>
                </g>
                <g transform="matrix(4.16667,0,0,4.16667,748.975,1911.58)">
                    <path d="M0,-39.989L-0.016,-15.166L-37.956,-15.166L-37.956,-39.989L-52.868,-39.989L-52.868,0L14.915,0L14.915,-39.989L0,-39.989Z" style="fill:rgb(111,186,68);fill-rule:nonzero;"/>
                </g>
                <g transform="matrix(-4.16667,0,0,4.16667,589.979,1911.58)">
                    <path d="M-38.365,-15.167L0.04,-15.167L14.709,0L-53.074,0L-38.365,-15.167Z" style="fill:rgb(0,105,56);fill-rule:nonzero;"/>
                </g>
                <g transform="matrix(4.16667,0,0,4.16667,0,865.542)">
                    <rect x="126.886" y="183.269" width="67.783" height="21.012" style="fill:rgb(4,82,155);"/>
                </g>
                <g transform="matrix(0,4.16667,4.16667,0,678.508,1724.68)">
                    <path d="M-2.064,-15.133L26.022,-15.133L26.022,-2.064L-12.953,-2.064L-2.064,-15.133Z" style="fill:rgb(14,184,236);fill-rule:nonzero;"/>
                </g>
                <g transform="matrix(4.16667,0,0,4.16667,669.91,1670.71)">
                    <path d="M0,38.975L13.066,38.975L13.066,10.889L0,0L0,38.975Z" style="fill:rgb(4,82,155);fill-rule:nonzero;"/>
                </g>
            </g>
        </g>
    </g>
</svg>
