<?xml version="1.0" encoding="UTF-8" standalone="no"?>
<!DOCTYPE svg PUBLIC "-//W3C//DTD SVG 1.1//EN" "http://www.w3.org/Graphics/SVG/1.1/DTD/svg11.dtd">
<svg width="100%" height="100%" viewBox="0 0 208 40" version="1.1" xmlns="http://www.w3.org/2000/svg" xmlns:xlink="http://www.w3.org/1999/xlink" xml:space="preserve" xmlns:serif="http://www.serif.com/" style="fill-rule:evenodd;clip-rule:evenodd;stroke-linejoin:round;stroke-miterlimit:2;">
    <g transform="matrix(1,0,0,1,-260,-25)">
        <g id="logo" transform="matrix(0.14111,0,0,0.14111,185.396,-204.891)">
            <g transform="matrix(4.16667,0,0,4.16667,916.878,1900.49)">
                <path d="M0,-11.957L-3.924,-11.957L-3.924,-14.589L6.479,-14.589L6.479,-11.957L2.515,-11.957L2.515,2.632L0,2.632L0,-11.957Z" style="fill:rgb(36,24,19);fill-rule:nonzero;"/>
            </g>
            <g transform="matrix(4.16667,0,0,4.16667,958.016,1875.26)">
                <path d="M0,0.154C0,3.655 1.409,6.439 3.821,6.439C6.253,6.439 7.622,3.629 7.622,0.027C7.622,-3.219 6.335,-6.284 3.821,-6.284C1.328,-6.284 0,-3.398 0,0.154M10.279,-0.102C10.279,5.673 7.479,8.968 3.678,8.968C-0.205,8.968 -2.657,5.264 -2.657,0.205C-2.657,-5.084 0,-8.814 3.883,-8.814C7.908,-8.814 10.279,-5.007 10.279,-0.102" style="fill:rgb(36,24,19);fill-rule:nonzero;"/>
            </g>
            <g transform="matrix(4.16667,0,0,4.16667,1011.59,1839.71)">
                <path d="M0,17.221L0,0L2.86,0L6.416,7.384C7.337,9.3 8.133,11.293 8.766,13.159L8.808,13.159C8.645,10.859 8.582,8.637 8.582,6.004L8.582,0L10.911,0L10.911,17.221L8.317,17.221L4.722,9.659C3.841,7.767 2.922,5.647 2.246,3.705L2.185,3.731C2.288,5.953 2.308,8.227 2.308,11.063L2.308,17.221L0,17.221Z" style="fill:rgb(36,24,19);fill-rule:nonzero;"/>
            </g>
            <g transform="matrix(4.16667,0,0,4.16667,1089.94,1853.87)">
                <path d="M0,10.399C0.818,10.986 2.044,11.498 3.331,11.498C4.944,11.498 5.845,10.552 5.845,9.147C5.845,7.843 5.15,7.078 3.393,6.286C1.123,5.264 -0.326,3.755 -0.326,1.278C-0.326,-1.533 1.554,-3.679 4.537,-3.679C6.028,-3.679 7.133,-3.271 7.848,-2.81L7.235,-0.28C6.744,-0.614 5.783,-1.099 4.496,-1.099C2.902,-1.099 2.207,-0.025 2.207,0.971C2.207,2.3 3.004,2.913 4.845,3.807C7.235,4.932 8.4,6.439 8.4,8.918C8.4,11.676 6.724,14.078 3.168,14.078C1.718,14.078 0.204,13.567 -0.552,13.005L0,10.399Z" style="fill:rgb(36,24,19);fill-rule:nonzero;"/>
            </g>
            <g transform="matrix(-4.16667,0,0,4.16667,2282.68,1270.84)">
                <rect x="272.665" y="136.529" width="2.514" height="17.221" style="fill:rgb(36,24,19);"/>
            </g>
            <g transform="matrix(4.16667,0,0,4.16667,1160.29,1839.71)">
                <path d="M0,17.221L0,0L2.86,0L6.416,7.384C7.336,9.3 8.132,11.293 8.767,13.159L8.807,13.159C8.644,10.859 8.581,8.637 8.581,6.004L8.581,0L10.912,0L10.912,17.221L8.316,17.221L4.721,9.659C3.841,7.767 2.922,5.647 2.245,3.705L2.186,3.731C2.288,5.953 2.307,8.227 2.307,11.063L2.307,17.221L0,17.221Z" style="fill:rgb(36,24,19);fill-rule:nonzero;"/>
            </g>
            <g transform="matrix(4.16667,0,0,4.16667,1271,1871.54)">
                <path d="M0,1.942L-5.19,1.942L-5.19,7.001L0.613,7.001L0.613,9.582L-7.704,9.582L-7.704,-7.64L0.308,-7.64L0.308,-5.059L-5.19,-5.059L-5.19,-0.613L0,-0.613L0,1.942Z" style="fill:rgb(36,24,19);fill-rule:nonzero;"/>
            </g>
            <g transform="matrix(4.16667,0,0,4.16667,1284.46,1839.71)">
                <path d="M0,17.221L0,0L2.861,0L6.417,7.384C7.338,9.3 8.134,11.293 8.768,13.159L8.808,13.159C8.646,10.859 8.582,8.637 8.582,6.004L8.582,0L10.912,0L10.912,17.221L8.317,17.221L4.722,9.659C3.842,7.767 2.923,5.647 2.247,3.705L2.187,3.731C2.288,5.953 2.309,8.227 2.309,11.063L2.309,17.221L0,17.221Z" style="fill:rgb(36,24,19);fill-rule:nonzero;"/>
            </g>
            <g transform="matrix(4.16667,0,0,4.16667,1389.73,1843.01)">
                <path d="M0,15.636C-0.88,16.045 -2.597,16.607 -4.436,16.607C-6.766,16.607 -8.523,15.865 -9.831,14.307C-11.057,12.851 -11.771,10.577 -11.753,7.971C-11.753,2.529 -8.646,-0.971 -4.087,-0.971C-2.391,-0.971 -1.063,-0.537 -0.431,-0.154L-0.981,2.376C-1.738,1.967 -2.657,1.635 -4.108,1.635C-7.052,1.635 -9.116,3.805 -9.116,7.818C-9.116,11.726 -7.194,14.052 -4.335,14.052C-3.435,14.052 -2.761,13.899 -2.434,13.695L-2.434,9.402L-4.864,9.402L-4.864,6.924L0,6.924L0,15.636Z" style="fill:rgb(36,24,19);fill-rule:nonzero;"/>
            </g>
            <g transform="matrix(-4.16667,0,0,4.16667,2814.81,1270.84)">
                <rect x="336.52" y="136.529" width="2.514" height="17.221" style="fill:rgb(36,24,19);"/>
            </g>
            <g transform="matrix(4.16667,0,0,4.16667,1426.35,1839.71)">
                <path d="M0,17.221L0,0L2.862,0L6.417,7.384C7.337,9.3 8.135,11.293 8.768,13.159L8.81,13.159C8.645,10.859 8.583,8.637 8.583,6.004L8.583,0L10.913,0L10.913,17.221L8.319,17.221L4.721,9.659C3.843,7.767 2.923,5.647 2.248,3.705L2.187,3.731C2.289,5.953 2.31,8.227 2.31,11.063L2.31,17.221L0,17.221Z" style="fill:rgb(36,24,19);fill-rule:nonzero;"/>
            </g>
            <g transform="matrix(4.16667,0,0,4.16667,1517.73,1871.54)">
                <path d="M0,1.942L-5.188,1.942L-5.188,7.001L0.615,7.001L0.615,9.582L-7.702,9.582L-7.702,-7.64L0.308,-7.64L0.308,-5.059L-5.188,-5.059L-5.188,-0.613L0,-0.613L0,1.942Z" style="fill:rgb(36,24,19);fill-rule:nonzero;"/>
            </g>
            <g transform="matrix(4.16667,0,0,4.16667,1563.3,1871.54)">
                <path d="M0,1.942L-5.19,1.942L-5.19,7.001L0.611,7.001L0.611,9.582L-7.705,9.582L-7.705,-7.64L0.306,-7.64L0.306,-5.059L-5.19,-5.059L-5.19,-0.613L0,-0.613L0,1.942Z" style="fill:rgb(36,24,19);fill-rule:nonzero;"/>
            </g>
            <g transform="matrix(4.16667,0,0,4.16667,1587.14,1878.24)">
                <path d="M0,-1.404L1.493,-1.404C3.189,-1.404 4.252,-2.529 4.252,-4.24C4.252,-6.131 3.189,-6.999 1.555,-6.999C0.758,-6.999 0.247,-6.923 0,-6.846L0,-1.404ZM-2.491,-9.018C-1.552,-9.223 -0.142,-9.376 1.31,-9.376C3.291,-9.376 4.641,-8.967 5.56,-7.996C6.316,-7.204 6.745,-6.004 6.745,-4.547C6.745,-2.324 5.541,-0.817 4.252,-0.229L4.252,-0.153C5.232,0.307 5.826,1.509 6.174,3.169C6.602,5.315 6.971,7.308 7.256,7.972L4.66,7.972C4.457,7.461 4.13,6.056 3.741,3.91C3.353,1.661 2.699,0.946 1.27,0.895L0,0.895L0,7.972L-2.491,7.972L-2.491,-9.018Z" style="fill:rgb(36,24,19);fill-rule:nonzero;"/>
            </g>
            <g transform="matrix(-4.16667,0,0,4.16667,3264.33,1270.84)">
                <rect x="390.463" y="136.529" width="2.513" height="17.221" style="fill:rgb(36,24,19);"/>
            </g>
            <g transform="matrix(4.16667,0,0,4.16667,1651.11,1839.71)">
                <path d="M0,17.221L0,0L2.861,0L6.417,7.384C7.339,9.3 8.135,11.293 8.77,13.159L8.808,13.159C8.646,10.859 8.583,8.637 8.583,6.004L8.583,0L10.913,0L10.913,17.221L8.319,17.221L4.722,9.659C3.843,7.767 2.923,5.647 2.248,3.705L2.187,3.731C2.29,5.953 2.31,8.227 2.31,11.063L2.31,17.221L0,17.221Z" style="fill:rgb(36,24,19);fill-rule:nonzero;"/>
            </g>
            <g transform="matrix(4.16667,0,0,4.16667,1756.37,1843.01)">
                <path d="M0,15.636C-0.879,16.045 -2.597,16.607 -4.435,16.607C-6.765,16.607 -8.522,15.865 -9.83,14.307C-11.056,12.851 -11.771,10.577 -11.752,7.971C-11.752,2.529 -8.645,-0.971 -4.088,-0.971C-2.392,-0.971 -1.063,-0.537 -0.429,-0.154L-0.982,2.376C-1.736,1.967 -2.657,1.635 -4.109,1.635C-7.052,1.635 -9.115,3.805 -9.115,7.818C-9.115,11.726 -7.194,14.052 -4.333,14.052C-3.435,14.052 -2.76,13.899 -2.433,13.695L-2.433,9.402L-4.865,9.402L-4.865,6.924L0,6.924L0,15.636Z" style="fill:rgb(36,24,19);fill-rule:nonzero;"/>
            </g>
            <g transform="matrix(4.16667,0,0,4.16667,1829.28,1841.73)">
                <path d="M0,16.223C-0.594,16.606 -1.901,16.99 -3.556,16.99C-7.93,16.99 -10.586,13.566 -10.586,8.328C-10.586,2.657 -7.439,-0.767 -3.229,-0.767C-1.576,-0.767 -0.389,-0.333 0.122,-0.001L-0.43,2.503C-1.084,2.145 -1.983,1.839 -3.128,1.839C-5.928,1.839 -7.951,4.036 -7.951,8.176C-7.951,11.957 -6.172,14.385 -3.147,14.385C-2.126,14.385 -1.064,14.129 -0.409,13.744L0,16.223Z" style="fill:rgb(36,24,19);fill-rule:nonzero;"/>
            </g>
            <g transform="matrix(4.16667,0,0,4.16667,1845.81,1875.26)">
                <path d="M0,0.154C0,3.655 1.409,6.439 3.821,6.439C6.254,6.439 7.623,3.629 7.623,0.027C7.623,-3.219 6.335,-6.284 3.821,-6.284C1.327,-6.284 0,-3.398 0,0.154M10.279,-0.102C10.279,5.673 7.479,8.968 3.677,8.968C-0.205,8.968 -2.657,5.264 -2.657,0.205C-2.657,-5.084 0,-8.814 3.883,-8.814C7.908,-8.814 10.279,-5.007 10.279,-0.102" style="fill:rgb(36,24,19);fill-rule:nonzero;"/>
            </g>
            <g transform="matrix(4.16667,0,0,4.16667,1909.77,1878.24)">
                <path d="M0,-1.404L1.492,-1.404C3.188,-1.404 4.25,-2.529 4.25,-4.24C4.25,-6.131 3.188,-6.999 1.554,-6.999C0.756,-6.999 0.244,-6.923 0,-6.846L0,-1.404ZM-2.494,-9.018C-1.554,-9.223 -0.143,-9.376 1.308,-9.376C3.29,-9.376 4.638,-8.967 5.56,-7.996C6.313,-7.204 6.744,-6.004 6.744,-4.547C6.744,-2.324 5.538,-0.817 4.25,-0.229L4.25,-0.153C5.232,0.307 5.825,1.509 6.171,3.169C6.602,5.315 6.969,7.308 7.254,7.972L4.659,7.972C4.455,7.461 4.129,6.056 3.738,3.91C3.352,1.661 2.697,0.946 1.267,0.895L0,0.895L0,7.972L-2.494,7.972L-2.494,-9.018Z" style="fill:rgb(36,24,19);fill-rule:nonzero;"/>
            </g>
            <g transform="matrix(4.16667,0,0,4.16667,1959.93,1876.55)">
                <path d="M0,-0.589C0.307,-0.486 0.716,-0.461 1.226,-0.461C3.106,-0.461 4.25,-1.61 4.25,-3.629C4.25,-5.545 3.188,-6.567 1.451,-6.567C0.756,-6.567 0.266,-6.49 0,-6.414L0,-0.589ZM-2.493,-8.611C-1.594,-8.816 -0.348,-8.969 1.349,-8.969C3.188,-8.969 4.537,-8.484 5.416,-7.564C6.233,-6.72 6.764,-5.366 6.764,-3.757C6.764,-2.122 6.356,-0.767 5.579,0.152C4.577,1.405 3.004,1.992 1.226,1.992C0.756,1.992 0.327,1.966 0,1.89L0,8.38L-2.493,8.38L-2.493,-8.611Z" style="fill:rgb(36,24,19);fill-rule:nonzero;"/>
            </g>
            <g transform="matrix(0,4.16667,4.16667,0,1991.53,1897.75)">
                <path d="M1.553,-1.553C0.378,-1.553 -0.465,-0.899 -0.465,0.001C-0.465,0.92 0.352,1.553 1.553,1.553C2.703,1.553 3.571,0.939 3.571,0.001C3.571,-0.921 2.703,-1.553 1.553,-1.553" style="fill:rgb(36,24,19);fill-rule:nonzero;"/>
            </g>
            <g transform="matrix(4.16667,0,0,4.16667,0,961.175)">
                <path d="M239.129,182.742L228.196,182.742L228.196,189.766L239.129,189.766L239.129,182.742ZM224.335,178.81L242.99,178.81L242.99,193.742L224.335,193.742L224.335,178.81ZM244.9,174.393L222.586,174.393L222.586,170.636L244.9,170.636L244.9,174.393ZM247.341,166.395L220.105,166.395L220.105,202.267L215.964,202.267L215.964,162.331L251.483,162.331L251.483,196.746C251.483,198.837 251.216,200.221 250.672,200.898C250.104,201.605 248.828,201.958 246.853,201.958L241.161,201.958L240.227,197.54L245.997,197.761C246.919,197.761 247.38,197.291 247.38,196.348L247.341,166.395Z" style="fill:rgb(36,24,19);fill-rule:nonzero;"/>
            </g>
            <g transform="matrix(4.16667,0,0,4.16667,1231.96,1637)">
                <path d="M0,39.981C-4.77,37.418 -9.063,35.327 -12.884,33.707L-10.366,30.836C-6.517,32.073 -2.276,33.914 2.358,36.358L0,39.981ZM-15.729,14.799L-17.76,14.799L-17.76,21.072L-15.729,21.072L-15.729,14.799ZM-13.292,24.342L-20.2,24.342L-20.2,11.53L-13.292,11.53L-13.292,24.342ZM-12.803,9.322L-20.688,9.322L-20.688,6.097L-12.803,6.097L-12.803,9.322ZM-11.909,4.021L-21.624,4.021L-21.624,26.594L-11.909,26.594L-11.909,4.021ZM-20.443,33.531C-23.887,36.475 -27.965,38.641 -32.678,40.025L-35.32,36.315C-30.498,34.929 -26.528,33.104 -23.409,30.836L-20.443,33.531ZM-24.996,26.594L-24.996,0.31L-8.535,0.31L-8.535,26.594L-3.253,26.594L-3.211,21.603L-7.032,21.603L-7.032,17.759L-3.088,17.759L-3.007,13.121L-7.111,13.121L-7.111,9.278L-2.928,9.278L-2.885,4.948L-7.275,4.948L-7.275,0.928L0.731,0.928L0.243,26.594L2.48,26.594L2.48,30.439L-35.684,30.439L-35.684,26.594L-33.368,26.594L-33.813,1.944C-31.241,1.62 -28.913,0.958 -26.825,-0.044L-25.281,3.623C-26.12,3.977 -27.003,4.272 -27.922,4.506C-28.87,4.742 -29.575,4.933 -30.035,5.081L-29.996,9.278L-26.501,9.278L-26.501,13.121L-29.913,13.121L-29.833,17.804L-26.255,17.804L-26.255,21.648L-29.752,21.648L-29.712,26.594L-24.996,26.594Z" style="fill:rgb(36,24,19);fill-rule:nonzero;"/>
            </g>
            <g transform="matrix(4.16667,0,0,4.16667,1406.41,1775.42)">
                <path d="M0,-27.875C0.867,-29.671 1.448,-31.453 1.75,-33.221L4.716,-32.558C4.471,-30.526 3.944,-28.64 3.13,-26.902L0,-27.875ZM-12.515,-27.875C-11.677,-29.848 -11.174,-31.733 -11.014,-33.529L-8.087,-33.044C-8.357,-30.481 -8.792,-28.537 -9.387,-27.212L-12.515,-27.875ZM2.643,-20.895C-1.313,-23.397 -3.632,-24.65 -4.309,-24.65C-5.879,-22.735 -8.154,-21.469 -11.136,-20.85L-13.411,-23.81C-11.025,-24.193 -9.131,-25.031 -7.72,-26.329C-6.313,-27.625 -5.554,-30.407 -5.445,-34.678L-2.031,-34.501C-2.031,-31.821 -2.341,-29.436 -2.965,-27.345C-0.581,-26.372 1.953,-25.106 4.634,-23.545L2.643,-20.895ZM-18.572,-27.962C-17.679,-29.759 -17.096,-31.542 -16.825,-33.309L-13.816,-32.602C-14.09,-30.54 -14.617,-28.67 -15.403,-26.99L-18.572,-27.962ZM-3.939,-12.193L-22.391,-12.193L-22.391,-9.585L-3.939,-9.585L-3.939,-12.193ZM-0.201,-1.147L-25.89,-1.147L-25.89,1.989L-0.201,1.989L-0.201,-1.147ZM-11.256,-6.582L-12.231,-4.285L3.499,-4.285L3.499,6.848L-0.201,6.848L-0.201,5.081L-25.891,5.081L-25.891,6.848L-29.545,6.848L-29.545,-4.285L-16.338,-4.285L-15.24,-6.582L-26.011,-6.582L-26.011,-15.195L-0.323,-15.195L-0.323,-6.582L-11.256,-6.582ZM-31.048,-27.962C-30.236,-29.789 -29.736,-31.674 -29.545,-33.617L-26.66,-33.132C-26.933,-30.569 -27.365,-28.627 -27.96,-27.301L-31.048,-27.962ZM-31.17,-20.85L4.92,-20.85L4.92,-12.986L1.139,-12.986L1.139,-17.361L-27.435,-17.361L-27.435,-12.986L-31.17,-12.986L-31.17,-20.85ZM-16.947,-20.85C-20.417,-23.414 -22.392,-24.695 -22.882,-24.695C-24.479,-22.927 -26.675,-21.661 -29.465,-20.895L-31.784,-23.766C-29.423,-24.178 -27.528,-25.062 -26.091,-26.417C-24.682,-27.771 -23.964,-30.54 -23.937,-34.723L-20.361,-34.545C-20.361,-31.895 -20.686,-29.538 -21.338,-27.478C-21.338,-27.418 -20.265,-26.859 -18.125,-25.798C-17.177,-25.328 -15.971,-24.547 -14.508,-23.458L-16.947,-20.85Z" style="fill:rgb(36,24,19);fill-rule:nonzero;"/>
            </g>
            <g transform="matrix(4.16667,0,0,4.16667,0,952.525)">
                <path d="M382.253,186.894L369.085,186.894L369.085,191.797L382.253,191.797L382.253,186.894ZM377.622,183.316L386.075,183.316L386.075,195.42L365.266,195.42L365.266,183.316L373.759,183.316L373.759,179.604L362.704,179.604L362.704,175.937L373.759,175.937L373.759,171.256L368.435,171.256C367.351,173.022 366.363,174.435 365.467,175.496L362.299,173.022C364.763,170.166 366.619,166.853 367.867,163.082L371.361,164.142C370.792,165.88 370.344,167.057 370.021,167.677L373.759,167.677L373.759,162.728L377.622,162.728L377.622,167.677L386.562,167.677L386.562,171.256L377.622,171.256L377.622,175.937L388.35,175.937L388.35,179.604L377.622,179.604L377.622,183.316ZM357.542,171.697C355.429,169.194 353.464,167.19 351.65,165.688L353.965,163.171C356.402,165.027 358.409,166.867 359.981,168.692L357.542,171.697ZM351.608,185.039C353.913,182.329 355.781,179.473 357.216,176.469L350.92,176.469L350.92,172.712L361.485,172.712L361.485,175.849C360.157,178.854 358.477,181.711 356.445,184.42L361.687,184.42L361.687,186.938C361.417,189.147 360.902,191.223 360.144,193.168C360.144,193.491 360.781,194.257 362.056,195.465C363.301,196.673 365.062,197.554 367.338,198.114C369.614,198.645 372.904,198.91 377.213,198.91C381.55,198.91 385.437,198.807 388.878,198.601L388.228,202.974L381.116,202.974C372.661,202.974 367.094,202.503 364.41,201.561C361.729,200.59 359.751,199.028 358.477,196.878C356.935,199.705 355.13,202.062 353.071,203.946L350.551,200.765C354.589,197.348 356.986,193.123 357.746,188.086L351.527,188.086L351.608,185.039Z" style="fill:rgb(36,24,19);fill-rule:nonzero;"/>
            </g>
            <g transform="matrix(4.16667,0,0,4.16667,1738.89,1664.43)">
                <path d="M0,26.727L16.581,26.727L16.581,31.057L-20.891,31.057L-20.891,26.727L-4.268,26.727L-4.268,0L-19.223,0L-19.223,-4.33L15.038,-4.33L15.038,-0.043L0,-0.043L0,26.727Z" style="fill:rgb(36,24,19);fill-rule:nonzero;"/>
            </g>
            <g transform="matrix(4.16667,0,0,4.16667,0,956.388)">
                <path d="M473.834,167.06L461.926,167.06L461.926,173.243L473.834,173.243L473.834,167.06ZM458.066,163.524L477.695,163.524L477.695,176.777L458.066,176.777L458.066,163.524ZM465.789,184.112C463.944,184.318 461.303,184.45 457.861,184.508L457.048,180.754C464.742,180.754 471.26,180.047 476.596,178.634L478.346,181.991C476.096,182.668 473.114,183.258 469.404,183.758L469.404,188.705L478.306,188.705L478.306,192.196L469.404,192.196L469.404,198.16L479.646,198.16L479.646,201.738L455.017,201.738L455.017,198.16L465.789,198.16L465.789,192.196L457.413,192.196L457.413,188.705L465.789,188.705L465.789,184.112ZM448.229,168.031C446.954,168.384 445.084,168.679 442.62,168.914L441.848,165.247C447.267,164.778 451.752,163.805 455.3,162.331L456.724,165.689C455.938,166.072 455.057,166.426 454.08,166.75C453.078,167.015 452.267,167.251 451.643,167.456L451.643,173.907L456.765,173.907L456.765,177.528L451.643,177.528L451.643,178.413C453.403,180.415 455.166,182.639 456.927,185.083L455.098,188.883C453.771,186.733 452.617,184.893 451.643,183.36L451.643,203.416L448.229,203.416L448.229,184.641C446.848,187.939 445.327,190.959 443.677,193.697L441.277,189.456C443.799,185.834 446.075,181.857 448.107,177.528L441.604,177.528L441.604,173.907L448.229,173.907L448.229,168.031Z" style="fill:rgb(36,24,19);fill-rule:nonzero;"/>
            </g>
            <g>
                <g transform="matrix(4.16667,0,0,4.16667,748.975,1911.58)">
                    <path d="M0,-39.989L-0.016,-15.166L-37.956,-15.166L-37.956,-39.989L-52.868,-39.989L-52.868,0L14.915,0L14.915,-39.989L0,-39.989Z" style="fill:rgb(111,186,68);fill-rule:nonzero;"/>
                </g>
                <g transform="matrix(-4.16667,0,0,4.16667,589.979,1911.58)">
                    <path d="M-38.365,-15.167L0.04,-15.167L14.709,0L-53.074,0L-38.365,-15.167Z" style="fill:rgb(0,105,56);fill-rule:nonzero;"/>
                </g>
                <g transform="matrix(4.16667,0,0,4.16667,-2.84217e-14,865.542)">
                    <rect x="126.886" y="183.269" width="67.783" height="21.012" style="fill:rgb(4,82,155);"/>
                </g>
                <g transform="matrix(0,4.16667,4.16667,0,678.508,1724.68)">
                    <path d="M-2.064,-15.133L26.022,-15.133L26.022,-2.064L-12.953,-2.064L-2.064,-15.133Z" style="fill:rgb(14,184,236);fill-rule:nonzero;"/>
                </g>
                <g transform="matrix(4.16667,0,0,4.16667,669.91,1670.71)">
                    <path d="M0,38.975L13.066,38.975L13.066,10.889L0,0L0,38.975Z" style="fill:rgb(4,82,155);fill-rule:nonzero;"/>
                </g>
            </g>
        </g>
    </g>
</svg>
